<?xml version="1.0" encoding="UTF-8"?>
<svg version="1.1" xmlns="http://www.w3.org/2000/svg" width="357" height="357">
<path d="M0 0 C2.49141111 2.2073365 4.92681892 4.46175471 7.34765625 6.74609375 C8.07339844 7.40738281 8.79914063 8.06867188 9.546875 8.75 C24.5266918 22.92300441 38.63598117 43.43081936 43.34765625 63.74609375 C44.18014893 63.75543945 45.0126416 63.76478516 45.87036133 63.77441406 C48.96267914 63.81845741 52.05400571 63.8800815 55.14575195 63.95361328 C57.14054756 63.99568024 59.13573707 64.01747239 61.13085938 64.0390625 C62.38447266 64.07128906 63.63808594 64.10351562 64.9296875 64.13671875 C66.08702393 64.15766602 67.24436035 64.17861328 68.43676758 64.20019531 C71.34765625 64.74609375 71.34765625 64.74609375 73.17797852 66.51928711 C74.33776361 68.72726036 74.98871713 70.5460385 75.48046875 72.984375 C75.64643555 73.79720947 75.81240234 74.61004395 75.98339844 75.44750977 C76.14485352 76.30916748 76.30630859 77.1708252 76.47265625 78.05859375 C76.73030762 79.39458618 76.73030762 79.39458618 76.99316406 80.75756836 C78.40911041 88.42361187 79.13434921 95.94647559 79.34765625 103.74609375 C79.38761719 104.61363281 79.42757813 105.48117188 79.46875 106.375 C79.83324456 120.07570747 79.82522812 140.56170441 73.19384766 152.89135742 C70.54426593 155.55320249 68.63530048 155.28839883 64.9296875 155.35546875 C63.67607422 155.38769531 62.42246094 155.41992188 61.13085938 155.453125 C59.82052734 155.46730469 58.51019531 155.48148438 57.16015625 155.49609375 C55.82483089 155.52425356 54.48954155 155.55418104 53.15429688 155.5859375 C49.88535476 155.65674491 46.61713046 155.70939008 43.34765625 155.74609375 C43.01894531 156.71546875 42.69023437 157.68484375 42.3515625 158.68359375 C35.44749204 178.39532315 24.6880111 194.57061008 10.34765625 209.74609375 C9.56261719 210.6071875 8.77757812 211.46828125 7.96875 212.35546875 C-4.14365011 225.15208077 -18.64214337 234.57582697 -34.65234375 241.74609375 C-35.64105469 242.21402344 -36.62976563 242.68195313 -37.6484375 243.1640625 C-70.16736761 257.82238744 -109.44155834 257.73448654 -142.6640625 245.703125 C-149.94951245 242.92511904 -156.83264723 239.5094077 -163.65234375 235.74609375 C-164.71839844 235.16988281 -165.78445312 234.59367187 -166.8828125 234 C-174.19902569 229.90178485 -181.31584318 225.26244443 -187.65234375 219.74609375 C-187.65234375 219.08609375 -187.65234375 218.42609375 -187.65234375 217.74609375 C-188.19503906 217.52695312 -188.73773438 217.3078125 -189.296875 217.08203125 C-192.43752017 215.30076981 -194.82108967 212.91804434 -197.33984375 210.37109375 C-197.86876221 209.83653564 -198.39768066 209.30197754 -198.94262695 208.7512207 C-213.75579964 193.48597657 -222.85832745 175.26556591 -230.65234375 155.74609375 C-231.44930664 155.73674805 -232.24626953 155.72740234 -233.06738281 155.71777344 C-236.6796655 155.66407877 -240.29065196 155.58042767 -243.90234375 155.49609375 C-245.15660156 155.48191406 -246.41085938 155.46773437 -247.703125 155.453125 C-248.90839844 155.42089844 -250.11367187 155.38867188 -251.35546875 155.35546875 C-252.46567383 155.33452148 -253.57587891 155.31357422 -254.71972656 155.29199219 C-258.29009063 154.62737896 -259.46073773 153.59367543 -261.65234375 150.74609375 C-262.6640625 147.42578125 -262.6640625 147.42578125 -263.33984375 143.62109375 C-263.57058594 142.38101563 -263.80132812 141.1409375 -264.0390625 139.86328125 C-265.5741136 130.06632334 -265.89114401 120.34274878 -265.90234375 110.43359375 C-265.90368317 109.73243439 -265.90502258 109.03127502 -265.90640259 108.30886841 C-265.90271355 99.36957703 -265.61610957 90.54682147 -264.33984375 81.68359375 C-264.2222168 80.86528076 -264.10458984 80.04696777 -263.98339844 79.20385742 C-263.17670331 74.33325509 -261.88509915 70.15994698 -259.65234375 65.74609375 C-256.9155565 64.37770012 -254.60969951 64.52974557 -251.55078125 64.4296875 C-250.3390625 64.38779297 -249.12734375 64.34589844 -247.87890625 64.30273438 C-246.60789063 64.26341797 -245.336875 64.22410156 -244.02734375 64.18359375 C-242.10921875 64.11881836 -242.10921875 64.11881836 -240.15234375 64.05273438 C-236.98579027 63.94639489 -233.81915622 63.84436542 -230.65234375 63.74609375 C-230.16765625 62.53695312 -229.68296875 61.3278125 -229.18359375 60.08203125 C-214.04248801 22.85919188 -188.33524005 -5.55476986 -151.65234375 -22.25390625 C-150.46253906 -22.79917969 -149.27273437 -23.34445313 -148.046875 -23.90625 C-98.80106179 -45.01159852 -40.41803611 -34.34640182 0 0 Z M-226.65234375 89.74609375 C-226.95082368 92.794719 -227.0725622 95.6346947 -227.05078125 98.68359375 C-227.05365143 99.56007568 -227.05652161 100.43655762 -227.05947876 101.33959961 C-227.06151973 103.19222663 -227.05598753 105.04487517 -227.04345703 106.89746094 C-227.02740359 109.73551554 -227.0433043 112.57214602 -227.0625 115.41015625 C-227.06051757 117.20963856 -227.05667391 119.00911999 -227.05078125 120.80859375 C-227.05685394 121.6586499 -227.06292664 122.50870605 -227.06918335 123.38452148 C-227.15510449 127.72261307 -227.15510449 127.72261307 -225.28433228 131.46655273 C-223.65991915 132.9475062 -223.65991915 132.9475062 -221.15234375 133.18359375 C-218.56351201 132.98120557 -218.56351201 132.98120557 -217.0144043 131.07128906 C-215.3312085 128.19787864 -215.3064835 126.4200027 -215.359375 123.10546875 C-215.36904297 122.03554687 -215.37871094 120.965625 -215.38867188 119.86328125 C-215.41380859 118.75210938 -215.43894531 117.6409375 -215.46484375 116.49609375 C-215.47837891 115.36945313 -215.49191406 114.2428125 -215.50585938 113.08203125 C-215.5411873 110.30290111 -215.59051855 107.52474012 -215.65234375 104.74609375 C-207.79798146 108.56104017 -201.04024046 114.4245588 -194.15234375 119.74609375 C-192.51704069 121.00263889 -190.88133968 122.25866463 -189.24560547 123.51464844 C-187.68687966 124.71940066 -186.14015139 125.93962489 -184.59375 127.16015625 C-183.64371094 127.88976562 -182.69367188 128.619375 -181.71484375 129.37109375 C-180.88082031 130.02335937 -180.04679687 130.675625 -179.1875 131.34765625 C-176.09293853 133.05467167 -174.13687669 133.16288072 -170.65234375 132.74609375 C-167.97092466 130.06467466 -168.39165483 127.9915339 -168.34880066 124.34535217 C-168.34971207 123.46826096 -168.35062347 122.59116974 -168.3515625 121.6875 C-168.34513481 120.33736061 -168.34513481 120.33736061 -168.33857727 118.95994568 C-168.33282845 117.05427899 -168.33233776 115.14859036 -168.33666992 113.24291992 C-168.33982744 110.32367565 -168.31638641 107.40544681 -168.29101562 104.48632812 C-168.28874248 102.63672003 -168.28803921 100.78710921 -168.2890625 98.9375 C-168.27985275 98.06243301 -168.27064301 97.18736603 -168.26115417 96.28578186 C-168.27049736 95.06452858 -168.27049736 95.06452858 -168.2800293 93.81860352 C-168.27939987 93.10293716 -168.27877045 92.38727081 -168.27812195 91.6499176 C-168.76538955 89.17098218 -169.68161696 88.28215908 -171.65234375 86.74609375 C-174.15234375 86.16276042 -174.15234375 86.16276042 -176.65234375 86.74609375 C-178.86565674 88.99074744 -179.60265322 90.34500747 -179.99291992 93.49511719 C-179.97720947 94.5215332 -179.96149902 95.54794922 -179.9453125 96.60546875 C-179.93564453 97.72050781 -179.92597656 98.83554688 -179.91601562 99.984375 C-179.89087891 101.14324219 -179.86574219 102.30210937 -179.83984375 103.49609375 C-179.82630859 104.67042969 -179.81277344 105.84476563 -179.79882812 107.0546875 C-179.76349155 109.95228673 -179.71415354 112.84895802 -179.65234375 115.74609375 C-182.76759102 113.93001673 -185.68627712 112.04692387 -188.515625 109.8125 C-189.23016846 109.25127441 -189.94471191 108.69004883 -190.6809082 108.11181641 C-191.43460693 107.51675293 -192.18830566 106.92168945 -192.96484375 106.30859375 C-194.56844987 105.05657338 -196.17262873 103.80528628 -197.77734375 102.5546875 C-200.17916909 100.68017374 -202.57922874 98.80368413 -204.97265625 96.91845703 C-207.12803465 95.22447606 -209.29485439 93.54629395 -211.46484375 91.87109375 C-212.11557861 91.35361572 -212.76631348 90.8361377 -213.43676758 90.30297852 C-216.06349478 88.29199285 -218.12915087 86.84229612 -221.4140625 86.23828125 C-224.11899844 86.85196654 -224.92678311 87.60708783 -226.65234375 89.74609375 Z M-159.46484375 92.80859375 C-162.59615275 97.9175716 -161.91315617 103.64113844 -161.96484375 109.43359375 C-161.99384766 110.49771484 -162.02285156 111.56183594 -162.05273438 112.65820312 C-162.10339816 118.9677929 -161.86968411 124.72472533 -157.65234375 129.74609375 C-152.92677964 133.84422902 -147.43357843 133.17909576 -141.515625 133.14453125 C-140.43983688 133.14740143 -139.36404877 133.15027161 -138.25566101 133.15322876 C-135.98708569 133.15526674 -133.7184927 133.14975552 -131.44995117 133.13720703 C-127.96688932 133.12110321 -124.48497968 133.13708955 -121.00195312 133.15625 C-118.79817451 133.15426845 -116.59439662 133.15042659 -114.390625 133.14453125 C-112.82191399 133.15364029 -112.82191399 133.15364029 -111.22151184 133.16293335 C-110.25678452 133.15347687 -109.29205719 133.14402039 -108.2980957 133.13427734 C-107.44713821 133.13189056 -106.59618073 133.12950378 -105.71943665 133.12704468 C-105.03729599 133.00133087 -104.35515533 132.87561707 -103.65234375 132.74609375 C-101.31459346 129.91036112 -101.31459346 129.91036112 -101.90234375 126.62109375 C-102.14984375 125.67234375 -102.39734375 124.72359375 -102.65234375 123.74609375 C-105.00352805 122.5705016 -106.47952289 122.59092912 -109.10205078 122.54077148 C-110.02285431 122.52082626 -110.94365784 122.50088104 -111.8923645 122.48033142 C-112.88823578 122.46361893 -113.88410706 122.44690643 -114.91015625 122.4296875 C-116.43743851 122.39851585 -116.43743851 122.39851585 -117.99557495 122.36671448 C-121.2560943 122.30119909 -124.51669581 122.24232473 -127.77734375 122.18359375 C-129.98438358 122.14041043 -132.19141503 122.0967962 -134.3984375 122.05273438 C-139.81631876 121.9455157 -145.23428221 121.84375301 -150.65234375 121.74609375 C-150.69506475 120.0799747 -150.69298207 118.4122649 -150.65234375 116.74609375 C-149.65234375 115.74609375 -149.65234375 115.74609375 -146.35546875 115.68359375 C-144.87105951 115.70182513 -143.38668345 115.72288147 -141.90234375 115.74609375 C-134.64627632 115.79133293 -127.40391509 115.69947634 -120.15234375 115.43359375 C-119.2387207 115.41103516 -118.32509766 115.38847656 -117.38378906 115.36523438 C-116.53397461 115.32978516 -115.68416016 115.29433594 -114.80859375 115.2578125 C-113.67647461 115.21853638 -113.67647461 115.21853638 -112.52148438 115.1784668 C-110.24424365 114.8767106 -110.24424365 114.8767106 -108.65234375 111.74609375 C-108.80994403 108.63304561 -108.80994403 108.63304561 -109.65234375 105.74609375 C-112.97933012 104.08260056 -116.7166376 104.50231318 -120.37890625 104.4296875 C-121.24172211 104.4089064 -122.10453796 104.38812531 -122.99349976 104.36671448 C-125.75469868 104.30123341 -128.51599413 104.24234077 -131.27734375 104.18359375 C-133.14714547 104.14040715 -135.01693737 104.09679282 -136.88671875 104.05273438 C-141.47516103 103.94555351 -146.06370058 103.844282 -150.65234375 103.74609375 C-149.77734375 98.87109375 -149.77734375 98.87109375 -148.65234375 97.74609375 C-147.25118977 97.63954579 -145.84484916 97.59991553 -144.43969727 97.58837891 C-143.09809288 97.57298569 -143.09809288 97.57298569 -141.72938538 97.55728149 C-140.7565007 97.54998016 -139.78361603 97.54267883 -138.78125 97.53515625 C-136.74283044 97.50709317 -134.70441908 97.47842875 -132.66601562 97.44921875 C-129.43546732 97.40788033 -126.20507311 97.37101425 -122.97436523 97.34472656 C-119.86800063 97.31722612 -116.7623446 97.27135844 -113.65625 97.22265625 C-112.68538956 97.21940338 -111.71452911 97.21615051 -110.71424866 97.21279907 C-109.81669357 97.1962326 -108.91913849 97.17966614 -107.99438477 97.16259766 C-106.80644066 97.15046738 -106.80644066 97.15046738 -105.59449768 97.13809204 C-103.24647009 96.90196191 -103.24647009 96.90196191 -101.65234375 93.74609375 C-101.80994403 90.63304561 -101.80994403 90.63304561 -102.65234375 87.74609375 C-105.01012245 86.5672044 -106.46873941 86.60095892 -109.09863281 86.5690918 C-110.48082001 86.54983894 -110.48082001 86.54983894 -111.89093018 86.53019714 C-112.88985291 86.52281021 -113.88877563 86.51542328 -114.91796875 86.5078125 C-115.94412292 86.49974075 -116.9702771 86.49166901 -118.02752686 86.48335266 C-120.20306709 86.46950486 -122.37862911 86.45878583 -124.55419922 86.45092773 C-127.87509617 86.43373482 -131.1949926 86.38985653 -134.515625 86.34570312 C-136.62889893 86.33557456 -138.74218132 86.32705897 -140.85546875 86.3203125 C-141.84629456 86.30280441 -142.83712036 86.28529633 -143.85797119 86.26725769 C-150.91817794 86.28937079 -154.68811332 87.37300395 -159.46484375 92.80859375 Z M-93.65234375 87.74609375 C-94.93134545 91.58309886 -94.81477192 95.21206526 -94.8203125 99.2109375 C-94.8236409 100.04065567 -94.8269693 100.87037384 -94.83039856 101.72523499 C-94.83545936 103.47949672 -94.83780715 105.23376808 -94.83764648 106.98803711 C-94.8398326 109.66992059 -94.85799605 112.35139244 -94.87695312 115.03320312 C-94.8798873 116.73827984 -94.88187193 118.44335852 -94.8828125 120.1484375 C-94.88999802 120.94958481 -94.89718353 121.75073212 -94.90458679 122.57615662 C-94.88877259 126.43536607 -94.85324762 129.47990225 -92.65234375 132.74609375 C-87.02094576 133.6724312 -83.98533675 131.35987212 -79.56640625 128.27148438 C-78.72851562 127.66498047 -77.890625 127.05847656 -77.02734375 126.43359375 C-76.18171875 125.83869141 -75.33609375 125.24378906 -74.46484375 124.63085938 C-71.44348566 122.49827618 -68.43761971 120.36170464 -65.52685547 118.07983398 C-63.65234375 116.74609375 -63.65234375 116.74609375 -61.32421875 116.26953125 C-57.49687017 116.95218699 -54.91659771 119.05930203 -51.90234375 121.37109375 C-50.65658119 122.28690901 -49.41048754 123.20227407 -48.1640625 124.1171875 C-46.09457261 125.6600191 -44.0368009 127.21563669 -41.984375 128.78125 C-38.16853938 131.5593885 -36.50190899 132.74609375 -31.65234375 132.74609375 C-30.16734375 132.25109375 -30.16734375 132.25109375 -28.65234375 131.74609375 C-27.00439418 128.45019461 -27.46776971 124.78405495 -27.44921875 121.16015625 C-27.44351868 120.30682709 -27.4378186 119.45349792 -27.4319458 118.5743103 C-27.42249177 116.76700075 -27.41596022 114.95967393 -27.41210938 113.15234375 C-27.40240668 110.38901645 -27.37138884 107.62643381 -27.33984375 104.86328125 C-27.33331339 103.10807734 -27.32806305 101.3528681 -27.32421875 99.59765625 C-27.30569855 98.35841904 -27.30569855 98.35841904 -27.2868042 97.09414673 C-27.30038026 93.59256959 -27.33296577 91.34002675 -29.01269531 88.21630859 C-30.61052972 86.51108739 -30.61052972 86.51108739 -33.21484375 86.37109375 C-35.82762484 86.52713239 -35.82762484 86.52713239 -37.65234375 88.74609375 C-38.02473602 91.56012058 -38.02473602 91.56012058 -38.06640625 94.84765625 C-38.10507813 96.059375 -38.14375 97.27109375 -38.18359375 98.51953125 C-38.21453125 99.79054687 -38.24546875 101.0615625 -38.27734375 102.37109375 C-38.31601563 103.64984375 -38.3546875 104.92859375 -38.39453125 106.24609375 C-38.48905424 109.41261392 -38.57460732 112.57912415 -38.65234375 115.74609375 C-42.6529524 114.22944385 -45.62762749 112.42413477 -49.02734375 109.80859375 C-54.87663178 105.27324915 -54.87663178 105.27324915 -61.65234375 102.74609375 C-68.22669032 104.88716447 -73.90348492 109.98604748 -79.3671875 114.07421875 C-81.65234375 115.74609375 -81.65234375 115.74609375 -83.65234375 116.74609375 C-83.6366333 115.97942383 -83.62092285 115.21275391 -83.60473633 114.42285156 C-83.54235401 110.94734073 -83.50334213 107.47194774 -83.46484375 103.99609375 C-83.43970703 102.78953125 -83.41457031 101.58296875 -83.38867188 100.33984375 C-83.37900391 99.1796875 -83.36933594 98.01953125 -83.359375 96.82421875 C-83.34366455 95.7559082 -83.3279541 94.68759766 -83.31176758 93.58691406 C-83.69628276 90.37958885 -84.38179133 89.01360752 -86.65234375 86.74609375 C-89.5052573 86.39817746 -91.07781535 86.45882955 -93.65234375 87.74609375 Z M-17.46484375 92.43359375 C-19.33515592 96.07578061 -19.77280095 99.67180614 -19.65234375 103.74609375 C-18.14900409 107.93962018 -16.21550298 111.04964892 -12.65234375 113.74609375 C-5.77975881 116.00502701 0.66277574 115.94889023 7.84765625 115.80859375 C14.7921583 115.69764608 21.47536037 115.67021248 28.34765625 116.74609375 C28.34765625 118.06609375 28.34765625 119.38609375 28.34765625 120.74609375 C26.04080429 121.89951973 24.69611771 121.88210212 22.12915039 121.90380859 C21.25807144 121.91407074 20.38699249 121.92433289 19.48951721 121.93490601 C18.54680466 121.94220734 17.6040921 121.94950867 16.6328125 121.95703125 C14.64777813 121.9850939 12.66275219 122.01375832 10.67773438 122.04296875 C7.53947125 122.08429081 4.40136658 122.12116739 1.26293945 122.14746094 C-1.75993574 122.17499989 -4.78208866 122.22086566 -7.8046875 122.26953125 C-8.74537582 122.27278412 -9.68606415 122.27603699 -10.65525818 122.27938843 C-11.52948929 122.2959549 -12.4037204 122.31252136 -13.30444336 122.32958984 C-14.4578849 122.34172012 -14.4578849 122.34172012 -15.6346283 122.35409546 C-18.20114695 122.85271429 -19.12622369 123.64527104 -20.65234375 125.74609375 C-20.51144291 129.57875667 -20.51144291 129.57875667 -18.65234375 132.74609375 C-17.15005168 132.86005324 -15.64249352 132.90565153 -14.13598633 132.9230957 C-13.17441116 132.93593094 -12.212836 132.94876617 -11.22212219 132.96199036 C-10.17429062 132.96937729 -9.12645905 132.97676422 -8.046875 132.984375 C-6.43893318 132.99648262 -6.43893318 132.99648262 -4.79850769 133.00883484 C-2.52283353 133.02269735 -0.24713839 133.03340975 2.02856445 133.04125977 C5.50317151 133.05843564 8.97681831 133.10229899 12.45117188 133.14648438 C14.66014924 133.15661404 16.86913471 133.16512928 19.078125 133.171875 C20.63469063 133.19813713 20.63469063 133.19813713 22.22270203 133.22492981 C28.27003222 133.20682767 31.73828612 132.76967324 36.34765625 128.74609375 C39.76518645 124.87289286 39.79262424 121.09002141 39.64453125 116.12890625 C39.26221431 113.06030977 38.37180011 111.08164435 36.34765625 108.74609375 C35.68765625 108.74609375 35.02765625 108.74609375 34.34765625 108.74609375 C34.34765625 108.08609375 34.34765625 107.42609375 34.34765625 106.74609375 C29.74814128 104.44835183 25.57458701 104.40413996 20.546875 104.33203125 C19.71050003 104.3126651 18.87412506 104.29329895 18.0124054 104.27334595 C15.35342455 104.21379183 12.69439985 104.16726201 10.03515625 104.12109375 C8.22719516 104.08289169 6.41925183 104.04383866 4.61132812 104.00390625 C0.19024927 103.9081103 -4.23091476 103.82399044 -8.65234375 103.74609375 C-7.99234375 101.76609375 -7.33234375 99.78609375 -6.65234375 97.74609375 C-5.60256348 97.72627441 -4.5527832 97.70645508 -3.47119141 97.68603516 C0.41658886 97.61007177 4.30399028 97.52134077 8.19140625 97.42871094 C9.87524954 97.39038271 11.5591758 97.35553663 13.24316406 97.32421875 C15.66110931 97.27865088 18.07848153 97.22064452 20.49609375 97.16015625 C21.62898331 97.14282944 21.62898331 97.14282944 22.78475952 97.12515259 C27.02590823 97.14279309 27.02590823 97.14279309 30.34765625 94.74609375 C30.68098958 91.74609375 30.68098958 91.74609375 30.34765625 88.74609375 C27.36230804 85.76074554 24.05467534 86.42126673 20.05078125 86.41015625 C19.22439148 86.40349945 18.39800171 86.39684265 17.54656982 86.38998413 C15.79474109 86.37984733 14.04287366 86.37516743 12.29101562 86.37548828 C9.62173839 86.37113304 6.95413874 86.33487641 4.28515625 86.296875 C2.58203689 86.29100328 0.87890969 86.28703627 -0.82421875 86.28515625 C-1.61818054 86.27078522 -2.41214233 86.25641418 -3.23016357 86.24160767 C-9.40070687 86.29197238 -12.90012486 88.18368306 -17.46484375 92.43359375 Z " fill="#FB0101" transform="translate(271.65234375,72.25390625)"/>
<path d="M0 0 C89.76 0 179.52 0 272 0 C271.21167832 5.51825179 270.21569708 9.61138958 268 14.5625 C267.69167236 15.25577393 267.38334473 15.94904785 267.06567383 16.66333008 C263.73252081 23.91949417 259.5993498 30.48935633 255 37 C254.26265625 38.05574219 253.5253125 39.11148438 252.765625 40.19921875 C237.68859316 60.76570681 218.23894129 76.59229711 195 87 C194.01128906 87.46792969 193.02257812 87.93585938 192.00390625 88.41796875 C159.48497614 103.07629369 120.21078541 102.98839279 86.98828125 90.95703125 C79.7028313 88.17902529 72.81969652 84.76331395 66 81 C64.93394531 80.42378906 63.86789063 79.84757812 62.76953125 79.25390625 C55.45331806 75.1556911 48.33650057 70.51635068 42 65 C42 64.34 42 63.68 42 63 C41.18595703 62.67128906 41.18595703 62.67128906 40.35546875 62.3359375 C37.21482358 60.55467606 34.83125408 58.17195059 32.3125 55.625 C31.78358154 55.09044189 31.25466309 54.55588379 30.7097168 54.00512695 C19.35027636 42.29901679 10.58959089 28.31499437 4 13.4375 C3.56373291 12.45571777 3.56373291 12.45571777 3.11865234 11.45410156 C1.437855 7.502039 0.72393559 4.34361356 0 0 Z " fill="#0A5B81" transform="translate(42,227)"/>
<path d="M0 0 C2.49141111 2.2073365 4.92681892 4.46175471 7.34765625 6.74609375 C8.07339844 7.40738281 8.79914063 8.06867188 9.546875 8.75 C24.70684905 23.09345839 39.20538157 44.03472035 43.34765625 64.74609375 C-47.07234375 64.74609375 -137.49234375 64.74609375 -230.65234375 64.74609375 C-223.64167132 46.05096726 -223.64167132 46.05096726 -219.90234375 39.55859375 C-219.47896729 38.81158203 -219.05559082 38.06457031 -218.61938477 37.29492188 C-214.54893059 30.27964402 -209.86685179 23.94462992 -204.65234375 17.74609375 C-203.935625 16.88886719 -203.21890625 16.03164062 -202.48046875 15.1484375 C-188.1231708 -1.3834147 -171.51946153 -13.20980824 -151.65234375 -22.25390625 C-150.46253906 -22.79917969 -149.27273437 -23.34445313 -148.046875 -23.90625 C-98.80106179 -45.01159852 -40.41803611 -34.34640182 0 0 Z " fill="#0A5B81" transform="translate(271.65234375,72.25390625)"/>
<path d="M0 0 C1.20847343 -0.00642769 1.20847343 -0.00642769 2.44136047 -0.01298523 C4.13480696 -0.01870207 5.82827798 -0.01924841 7.52172852 -0.01489258 C10.11581796 -0.01171564 12.70878427 -0.03528192 15.30273438 -0.06054688 C16.95182148 -0.06281841 18.60091165 -0.06352404 20.25 -0.0625 C21.02502365 -0.07170975 21.8000473 -0.08091949 22.59855652 -0.09040833 C27.97042486 -0.04401149 27.97042486 -0.04401149 30.43676758 1.82348633 C30.76314209 2.31099365 31.0895166 2.79850098 31.42578125 3.30078125 C31.09578125 3.96078125 30.76578125 4.62078125 30.42578125 5.30078125 C29.43578125 4.31078125 29.43578125 4.31078125 28.42578125 3.30078125 C25.62702001 3.07617066 22.93021414 2.97261715 20.12890625 2.96484375 C19.30251648 2.95818695 18.47612671 2.95153015 17.62469482 2.94467163 C15.87286609 2.93453483 14.12099866 2.92985493 12.36914062 2.93017578 C9.69986339 2.92582054 7.03226374 2.88956391 4.36328125 2.8515625 C2.66016189 2.84569078 0.95703469 2.84172377 -0.74609375 2.83984375 C-1.54005554 2.82547272 -2.33401733 2.81110168 -3.15203857 2.79629517 C-8.4073238 2.83918944 -11.42611514 3.79042295 -15.57421875 7.30078125 C-18.23478482 11.76366628 -19.13397285 15.3288248 -18.203125 20.375 C-17.04838379 23.9109467 -15.32160746 25.84566794 -12.57421875 28.30078125 C-5.7387537 30.6315885 0.76160402 30.50317347 7.92578125 30.36328125 C14.8702833 30.25233358 21.55348537 30.22489998 28.42578125 31.30078125 C28.75578125 32.95078125 29.08578125 34.60078125 29.42578125 36.30078125 C26.31888504 38.37204539 25.60657008 38.55443173 22.07788086 38.58789062 C21.20364975 38.60130493 20.32941864 38.61471924 19.42869568 38.62854004 C18.48800735 38.63381714 17.54731903 38.63909424 16.578125 38.64453125 C15.12666832 38.66646545 15.12666832 38.66646545 13.64588928 38.68884277 C9.50095733 38.75119614 5.35587596 38.79078843 1.21069336 38.83251953 C-1.81282427 38.86616946 -4.83602001 38.91129753 -7.859375 38.95703125 C-9.27344383 38.9649469 -9.27344383 38.9649469 -10.71607971 38.97302246 C-11.58715866 38.98643677 -12.45823761 38.99985107 -13.35571289 39.01367188 C-14.50796104 39.02460876 -14.50796104 39.02460876 -15.68348694 39.0357666 C-17.81605666 39.141213 -17.81605666 39.141213 -19.57421875 41.30078125 C-19.25222909 44.40004944 -19.25222909 44.40004944 -18.57421875 47.30078125 C-11.70585796 47.40236752 -4.83769158 47.472325 2.03125 47.52050781 C4.36693563 47.54059834 6.70257112 47.56787586 9.03808594 47.60253906 C12.39921456 47.65116816 15.759677 47.67377617 19.12109375 47.69140625 C20.68236496 47.72237396 20.68236496 47.72237396 22.275177 47.75396729 C28.31792269 47.75582913 31.85210392 47.3817374 36.42578125 43.30078125 C38.21540944 40.6822043 38.21540944 40.6822043 39.42578125 38.30078125 C39.75578125 38.30078125 40.08578125 38.30078125 40.42578125 38.30078125 C40.73828125 41.11328125 40.73828125 41.11328125 40.42578125 44.30078125 C38.30078125 45.98828125 38.30078125 45.98828125 35.42578125 47.30078125 C34.59699463 47.81390869 33.76820801 48.32703613 32.91430664 48.85571289 C28.12923852 50.83785427 23.86501794 50.74972194 18.734375 50.734375 C17.71150894 50.73961685 16.68864288 50.7448587 15.63478088 50.7502594 C13.47894191 50.75666527 11.32306792 50.75536125 9.16723633 50.74682617 C5.87062498 50.73830024 2.57573795 50.76712449 -0.72070312 50.79882812 C-2.8190099 50.8004399 -4.91731973 50.79986305 -7.015625 50.796875 C-7.99906387 50.80810898 -8.98250275 50.81934296 -9.9957428 50.83091736 C-14.32395925 50.78684289 -16.8986459 50.69448244 -20.6965332 48.48120117 C-23.339245 45.4124118 -23.17419308 43.17154682 -23.19921875 39.17578125 C-23.1766015 35.51818755 -23.1766015 35.51818755 -23.57421875 32.30078125 C-24.56421875 31.64078125 -25.55421875 30.98078125 -26.57421875 30.30078125 C-26.53941406 31.409375 -26.50460938 32.51796875 -26.46875 33.66015625 C-26.44060526 35.12368273 -26.41330583 36.58722564 -26.38671875 38.05078125 C-26.36158203 38.78039062 -26.33644531 39.51 -26.31054688 40.26171875 C-26.26440239 43.64564729 -26.32097747 45.87936682 -28.0859375 48.81640625 C-28.57707031 49.30625 -29.06820312 49.79609375 -29.57421875 50.30078125 C-35.28130939 49.8348963 -38.73361598 48.36320341 -43.57421875 45.30078125 C-43.90421875 45.63078125 -44.23421875 45.96078125 -44.57421875 46.30078125 C-46.90719308 46.34171062 -49.241271 46.34319848 -51.57421875 46.30078125 C-51.75597656 45.67429688 -51.93773437 45.0478125 -52.125 44.40234375 C-52.37636719 43.58507812 -52.62773437 42.7678125 -52.88671875 41.92578125 C-53.13035156 41.11367187 -53.37398438 40.3015625 -53.625 39.46484375 C-54.4879006 36.96893496 -54.4879006 36.96893496 -57.57421875 35.30078125 C-57.67734375 36.39390625 -57.78046875 37.48703125 -57.88671875 38.61328125 C-58.57421875 42.30078125 -58.57421875 42.30078125 -59.76171875 44.23828125 C-62.49665002 45.84151682 -64.46455805 45.68155603 -67.57421875 45.30078125 C-69.94921875 43.92578125 -69.94921875 43.92578125 -71.57421875 42.30078125 C-71.57421875 41.64078125 -71.57421875 40.98078125 -71.57421875 40.30078125 C-72.23421875 40.30078125 -72.89421875 40.30078125 -73.57421875 40.30078125 C-73.57421875 40.96078125 -73.57421875 41.62078125 -73.57421875 42.30078125 C-74.49654297 42.78998047 -74.49654297 42.78998047 -75.4375 43.2890625 C-76.24574219 43.72605469 -77.05398437 44.16304687 -77.88671875 44.61328125 C-78.68722656 45.04253906 -79.48773438 45.47179687 -80.3125 45.9140625 C-82.59035973 47.18608454 -82.59035973 47.18608454 -84.1875 48.9375 C-85.57421875 50.30078125 -85.57421875 50.30078125 -88.44921875 50.80078125 C-92.53997897 50.14625962 -93.77772799 48.24445574 -96.57421875 45.30078125 C-97.89421875 45.30078125 -99.21421875 45.30078125 -100.57421875 45.30078125 C-101.03828125 46.25984375 -101.03828125 46.25984375 -101.51171875 47.23828125 C-102.57421875 49.30078125 -102.57421875 49.30078125 -103.57421875 50.30078125 C-105.02995121 50.414621 -106.49109937 50.46032613 -107.95117188 50.4777832 C-108.88304321 50.49061844 -109.81491455 50.50345367 -110.77502441 50.51667786 C-112.29984436 50.52775826 -112.29984436 50.52775826 -113.85546875 50.5390625 C-114.8981189 50.54713425 -115.94076904 50.55520599 -117.01501465 50.56352234 C-119.23102139 50.57738841 -121.44704971 50.5880992 -123.66308594 50.59594727 C-127.03232357 50.61306836 -130.40055665 50.65692133 -133.76953125 50.70117188 C-135.92316987 50.71130653 -138.07681684 50.71982021 -140.23046875 50.7265625 C-141.23082153 50.74407059 -142.23117432 50.76157867 -143.26184082 50.77961731 C-150.32564821 50.75802511 -157.00479526 49.74108234 -162.28381348 44.6530304 C-164.8332692 41.63370352 -165.89273438 38.99988113 -166.07421875 35.05078125 C-165.57421875 31.30078125 -165.57421875 31.30078125 -164.07421875 29.30078125 C-163.57921875 28.97078125 -163.08421875 28.64078125 -162.57421875 28.30078125 C-162.90421875 30.94078125 -163.23421875 33.58078125 -163.57421875 36.30078125 C-162.58421875 36.63078125 -161.59421875 36.96078125 -160.57421875 37.30078125 C-157.57421875 42.52300347 -157.57421875 42.52300347 -157.57421875 45.30078125 C-154.06693584 46.88432962 -151.34982911 47.54768363 -147.50854492 47.52783203 C-146.03758614 47.52760544 -146.03758614 47.52760544 -144.53691101 47.52737427 C-143.49090225 47.5170517 -142.44489349 47.50672913 -141.3671875 47.49609375 C-140.28665604 47.49326385 -139.20612457 47.49043396 -138.09284973 47.48751831 C-134.64902574 47.47634257 -131.20546386 47.45124243 -127.76171875 47.42578125 C-125.42383189 47.4157481 -123.08594094 47.40662283 -120.74804688 47.3984375 C-115.0233484 47.37641175 -109.2988023 47.34295993 -103.57421875 47.30078125 C-102.84087446 43.32323997 -102.84087446 43.32323997 -102.57421875 39.30078125 C-103.14384842 39.29491501 -103.71347809 39.28904877 -104.30036926 39.28300476 C-110.22149071 39.21914161 -116.14206504 39.13474087 -122.06274414 39.03833008 C-124.27328281 39.00504617 -126.48390718 38.97702513 -128.69458008 38.9543457 C-131.86967541 38.92086366 -135.04398292 38.86855073 -138.21875 38.8125 C-139.20945999 38.80611008 -140.20016998 38.79972015 -141.22090149 38.7931366 C-142.14162949 38.77334244 -143.06235748 38.75354828 -144.01098633 38.7331543 C-144.82150955 38.72205124 -145.63203278 38.71094818 -146.46711731 38.69950867 C-149.06911118 38.20713261 -150.00380299 37.40369442 -151.57421875 35.30078125 C-151.32275296 33.16332203 -151.11496096 31.84152346 -149.57421875 30.30078125 C-146.98372809 30.25167242 -144.41373058 30.25946214 -141.82421875 30.30078125 C-131.38405187 30.39485607 -120.99576222 29.87633 -110.57421875 29.30078125 C-110.42984375 28.37265625 -110.28546875 27.44453125 -110.13671875 26.48828125 C-109.57421875 23.30078125 -109.57421875 23.30078125 -108.57421875 20.30078125 C-108.22359375 20.73390625 -107.87296875 21.16703125 -107.51171875 21.61328125 C-104.84152951 23.93892994 -101.82375366 24.94188483 -98.57421875 26.30078125 C-97.58421875 27.29078125 -97.58421875 27.29078125 -96.57421875 28.30078125 C-96.24421875 20.38078125 -95.91421875 12.46078125 -95.57421875 4.30078125 C-95.24421875 4.30078125 -94.91421875 4.30078125 -94.57421875 4.30078125 C-94.5491626 5.49155273 -94.52410645 6.68232422 -94.49829102 7.90917969 C-94.40407228 12.32986083 -94.30388686 16.75039015 -94.2019043 21.17089844 C-94.15861018 23.08362271 -94.11693119 24.99638425 -94.0769043 26.90917969 C-94.01906795 29.65961943 -93.95541199 32.40987253 -93.890625 35.16015625 C-93.87391251 36.01446228 -93.85720001 36.86876831 -93.83998108 37.7489624 C-93.81006325 38.94975433 -93.81006325 38.94975433 -93.77954102 40.17480469 C-93.75622459 41.22737457 -93.75622459 41.22737457 -93.73243713 42.3012085 C-93.56695039 44.39263922 -93.13837378 46.28334433 -92.57421875 48.30078125 C-85.74960418 47.05783674 -81.34202942 44.48448797 -75.82421875 40.36328125 C-74.71240234 39.55600586 -74.71240234 39.55600586 -73.578125 38.73242188 C-70.84730539 36.74436558 -68.13472888 34.74201304 -65.48046875 32.65258789 C-63.57421875 31.30078125 -63.57421875 31.30078125 -61.24609375 30.82421875 C-57.41887455 31.50685141 -54.83822351 33.61376941 -51.82421875 35.92578125 C-50.57853392 36.84300354 -49.3324403 37.7596709 -48.0859375 38.67578125 C-46.02341637 40.21397006 -43.96496562 41.75749809 -41.90625 43.30078125 C-41.15730469 43.83703125 -40.40835938 44.37328125 -39.63671875 44.92578125 C-39.00894531 45.39242187 -38.38117188 45.8590625 -37.734375 46.33984375 C-34.9023059 47.77496713 -34.9023059 47.77496713 -28.57421875 47.30078125 C-28.24421875 33.77078125 -27.91421875 20.24078125 -27.57421875 6.30078125 C-27.24421875 6.30078125 -26.91421875 6.30078125 -26.57421875 6.30078125 C-26.57421875 12.57078125 -26.57421875 18.84078125 -26.57421875 25.30078125 C-24.92421875 25.30078125 -23.27421875 25.30078125 -21.57421875 25.30078125 C-18.57881702 28.05331257 -17.63256797 29.5276541 -17.32421875 33.61328125 C-17.40671875 34.50015625 -17.48921875 35.38703125 -17.57421875 36.30078125 C-16.25421875 36.30078125 -14.93421875 36.30078125 -13.57421875 36.30078125 C-13.76673643 31.58409817 -14.19178384 29.40420731 -17.63671875 26.11328125 C-20.62890491 22.92642274 -21.07577084 20.58579469 -21.19921875 16.23828125 C-20.93923704 11.05814573 -20.13700603 8.07314425 -16.57421875 4.30078125 C-15.91421875 4.30078125 -15.25421875 4.30078125 -14.57421875 4.30078125 C-14.57421875 3.64078125 -14.57421875 2.98078125 -14.57421875 2.30078125 C-9.57177319 0.30882359 -5.2937409 -0.00627446 0 0 Z " fill="#E72221" transform="translate(271.57421875,156.69921875)"/>
<path d="M0 0 C1.29372478 2.10000349 2.33639019 4.09027873 3.375 6.3125 C10.91738223 21.33485486 21.23471706 34.68179013 32.453125 47.12890625 C35 50 35 50 37 53 C8.84023374 51.67483453 -17.1289376 36.07462703 -37 17 C-36 14 -36 14 -34.02563477 12.71313477 C-33.17283936 12.29346436 -32.32004395 11.87379395 -31.44140625 11.44140625 C-30.02504883 10.73854492 -30.02504883 10.73854492 -28.58007812 10.02148438 C-27.08637695 9.29928711 -27.08637695 9.29928711 -25.5625 8.5625 C-24.12100586 7.84610352 -24.12100586 7.84610352 -22.65039062 7.11523438 C-17.99346365 4.82602348 -13.29960807 2.62859151 -8.52734375 0.58984375 C-7.7499585 0.25718506 -6.97257324 -0.07547363 -6.17163086 -0.41821289 C-3.65393577 -1.09271175 -2.39323986 -1.00801786 0 0 Z " fill="#90D3E1" transform="translate(123,259)"/>
<path d="M0 0 C0 0.66 0 1.32 0 2 C-1.65370429 3.34937677 -3.32269457 4.68007499 -5 6 C-18.18806044 20.26989352 -28.66576821 37.05600099 -38 54 C-42.90693452 53.47667574 -46.74934783 52.45563812 -51.1875 50.3125 C-52.30511719 49.77496094 -53.42273438 49.23742187 -54.57421875 48.68359375 C-55.70472656 48.12800781 -56.83523437 47.57242188 -58 47 C-59.09957031 46.47535156 -60.19914062 45.95070312 -61.33203125 45.41015625 C-66.35820329 42.97453897 -70.7118941 40.62003143 -75 37 C-73.71034824 35.62437146 -72.37310707 34.29233607 -71 33 C-70.34 33 -69.68 33 -69 33 C-69 32.34 -69 31.68 -69 31 C-60.8346262 23.80476962 -51.8093065 18.04073587 -42.1875 13 C-41.3416333 12.55599854 -40.4957666 12.11199707 -39.62426758 11.65454102 C-30.40413637 6.97074653 -21.08019035 3.73143831 -10.9375 1.75 C-10.09767578 1.57726563 -9.25785156 1.40453125 -8.39257812 1.2265625 C-2.34250992 0 -2.34250992 0 0 0 Z " fill="#90D4E1" transform="translate(160,52)"/>
<path d="M0 0 C18.75434709 1.86675214 38.82315155 8.71465115 54 20 C54.86882812 20.60585937 55.73765625 21.21171875 56.6328125 21.8359375 C63.1857818 26.45404678 69.1528939 31.52071619 75 37 C72.84740792 39.36183093 70.86014688 40.73423363 67.97265625 42.0859375 C67.18568359 42.45726807 66.39871094 42.82859863 65.58789062 43.21118164 C64.75451172 43.5952417 63.92113281 43.97930176 63.0625 44.375 C62.21236328 44.77130615 61.36222656 45.1676123 60.48632812 45.57592773 C42.3045301 54 42.3045301 54 38 54 C37.68885254 53.43716309 37.37770508 52.87432617 37.05712891 52.29443359 C27.91474291 35.83142879 18.28926001 21.25039957 5.78515625 7.1796875 C3.73343106 4.86599674 1.79882524 2.51960887 0 0 Z " fill="#90D4E1" transform="translate(196,52)"/>
<path d="M0 0 C3.40060338 0.58820641 6.33172696 1.44087349 9.4765625 2.85546875 C10.72324707 3.41439819 10.72324707 3.41439819 11.99511719 3.98461914 C12.86297852 4.38156982 13.73083984 4.77852051 14.625 5.1875 C15.51348633 5.59025146 16.40197266 5.99300293 17.31738281 6.40795898 C23.70940249 9.33500925 29.92813007 12.44879167 36 16 C29.91055217 30.36980811 7.79279211 40.39676602 -5.85498047 46.14794922 C-15.59649093 50.01749981 -27.44388058 54.68103996 -38 54 C-37.236875 53.113125 -36.47375 52.22625 -35.6875 51.3125 C-35.13835937 50.66796875 -34.58921875 50.0234375 -34.0234375 49.359375 C-32.54057477 47.63032271 -31.04375201 45.91321657 -29.5390625 44.203125 C-17.68036151 30.62062452 -8.47367427 15.88124635 0 0 Z " fill="#90D4E2" transform="translate(234,258)"/>
<path d="M0 0 C18.15 0 36.3 0 55 0 C54.05457395 4.72713025 52.53364513 8.39419634 50.375 12.625 C49.83975708 13.68243408 49.83975708 13.68243408 49.29370117 14.76123047 C45.00948906 23.09812695 40.25449975 30.98737907 34 38 C28.75868065 37.4421889 24.65174119 34.81466865 20.125 32.3125 C12.81694105 28.33645166 5.5656466 25.08145074 -2.2890625 22.3515625 C-3.18367187 21.90554687 -4.07828125 21.45953125 -5 21 C-6 17 -6 17 0 0 Z " fill="#93D3E0" transform="translate(246,227)"/>
<path d="M0 0 C18.15 0 36.3 0 55 0 C61 16 61 16 60 21 C57.49858585 22.32519087 55.27429047 23.2679455 52.625 24.1875 C44.77446921 27.12373213 37.53103423 30.74686887 30.24658203 34.88745117 C29.48845215 35.30615479 28.73032227 35.7248584 27.94921875 36.15625 C27.28237061 36.53587891 26.61552246 36.91550781 25.9284668 37.30664062 C23.49926737 38.180033 22.37125856 37.9721275 20 37 C18.23901393 35.00840861 16.75035175 33.11201215 15.25 30.9375 C14.81751953 30.32060303 14.38503906 29.70370605 13.93945312 29.06811523 C7.76611237 20.01320225 3.00838507 10.52934776 0 0 Z " fill="#93D4E1" transform="translate(55,227)"/>
<path d="M0 0 C8.98631112 6.04678573 17.46446446 24.16835138 20.84423828 34.2409668 C20.84423828 35.2309668 20.84423828 36.2209668 20.84423828 37.2409668 C2.69423828 37.2409668 -15.45576172 37.2409668 -34.15576172 37.2409668 C-39.15576172 22.2409668 -39.15576172 22.2409668 -40.15576172 17.2409668 C-39.08841797 16.86327148 -38.02107422 16.48557617 -36.92138672 16.09643555 C-26.94926272 12.44768357 -17.80603897 8.12396887 -8.70751953 2.62255859 C-7.90926758 2.15503174 -7.11101562 1.68750488 -6.28857422 1.20581055 C-5.23500732 0.56567017 -5.23500732 0.56567017 -4.16015625 -0.08740234 C-2.15576172 -0.7590332 -2.15576172 -0.7590332 0 0 Z " fill="#93D4E0" transform="translate(280.15576171875,99.759033203125)"/>
<path d="M0 0 C3.96700168 1.04394781 7.14236663 2.62782848 10.5859375 4.7890625 C16.33834658 8.33713634 22.36697285 10.85810208 28.625 13.375 C30.27435547 14.04982422 30.27435547 14.04982422 31.95703125 14.73828125 C34.63515188 15.83281751 37.31604125 16.91987808 40 18 C39 24 39 24 34 38 C15.85 38 -2.3 38 -21 38 C-18.9321197 31.79635911 -16.91851551 26.36540271 -13.875 20.6875 C-13.48900635 19.96054932 -13.1030127 19.23359863 -12.70532227 18.48461914 C-9.07415706 11.82125137 -4.79079433 5.8780668 0 0 Z " fill="#93D4E1" transform="translate(76,99)"/>
<path d="M0 0 C15.38672253 7.69336126 31.30411594 32.3096448 38 48 C37.671875 50.328125 37.671875 50.328125 37 52 C24.17739141 55.38265135 13.50694829 57 0 57 C0 38.19 0 19.38 0 0 Z " fill="#8FD3E0" transform="translate(184,59)"/>
<path d="M0 0 C13.51228501 0 13.51228501 0 18.31640625 1.0234375 C19.34701172 1.24 20.37761719 1.4565625 21.43945312 1.6796875 C22.47005859 1.90914062 23.50066406 2.13859375 24.5625 2.375 C25.62791016 2.59671875 26.69332031 2.8184375 27.79101562 3.046875 C35.58426339 4.72284226 35.58426339 4.72284226 39 7 C28.98380451 25.62915586 16.9777771 43.85924005 1 58 C0.67 58 0.34 58 0 58 C0 38.86 0 19.72 0 0 Z " fill="#8FD3E0" transform="translate(184,248)"/>
<path d="M0 0 C0 18.81 0 37.62 0 57 C-13.1580506 57 -25.27006053 55.22005214 -38 52 C-36.20046187 39.0673193 -24.78589633 26.97752166 -17 17 C-16.17387564 15.92233739 -15.34830698 14.84424843 -14.5234375 13.765625 C-10.56181319 8.66593407 -10.56181319 8.66593407 -9 7 C-8.34 7 -7.68 7 -7 7 C-7 6.34 -7 5.68 -7 5 C-2.47619048 0 -2.47619048 0 0 0 Z " fill="#90D5E2" transform="translate(172,59)"/>
<path d="M0 0 C0 19.14 0 38.28 0 58 C-13.86821286 46.1129604 -34.55592629 24.96536592 -38 6 C-25.45573087 2.11725003 -13.11916312 0 0 0 Z " fill="#91D4E2" transform="translate(172,248)"/>
<path d="M0 0 C3.65993416 5.48105204 4.59021973 9.2900534 4.49609375 15.8203125 C4.49754898 16.64199921 4.49900421 17.46368591 4.50050354 18.31027222 C4.49885258 20.0364743 4.48738192 21.76269233 4.46655273 23.48876953 C4.43750374 26.12466029 4.44597869 28.75854783 4.45898438 31.39453125 C4.45274866 33.07813473 4.44435902 34.76173189 4.43359375 36.4453125 C4.43652939 37.22875031 4.43946503 38.01218811 4.44248962 38.81936646 C4.35642494 43.82560439 3.61092537 47.38907463 0 51 C-2.5625 51.4375 -2.5625 51.4375 -6 51 C-7.26686247 50.02634151 -8.49329254 48.99901775 -9.6875 47.9375 C-12.26574086 45.79557682 -13.3853255 45 -16.78125 45 C-18.69005845 45.28734751 -20.59768594 45.58267529 -22.50390625 45.88671875 C-25 46 -25 46 -28.125 43.75 C-31.09637088 39.39198937 -31.09759659 36.17261914 -31 31 C-33.33214148 29.79371992 -35.49642139 28.8345262 -38 28 C-39.02019573 27.0206121 -40.02149805 26.02104551 -41 25 C-41.66 24.67 -42.32 24.34 -43 24 C-42.97381592 24.64026123 -42.94763184 25.28052246 -42.9206543 25.94018555 C-42.81638719 28.85570502 -42.75158247 31.77083198 -42.6875 34.6875 C-42.6246582 36.19860352 -42.6246582 36.19860352 -42.56054688 37.74023438 C-42.43723561 45.21289683 -42.43723561 45.21289683 -45.29296875 49.20703125 C-48 51 -48 51 -51.625 51 C-54.94799961 50.01540752 -55.95503711 49.63155623 -58 47 C-58.38095093 45.1096344 -58.38095093 45.1096344 -58.38818359 42.95922852 C-58.39764008 42.15151505 -58.40709656 41.34380157 -58.4168396 40.51161194 C-58.41076691 39.64281906 -58.40469421 38.77402618 -58.3984375 37.87890625 C-58.40130768 36.98259995 -58.40417786 36.08629364 -58.40713501 35.16282654 C-58.40917635 33.26731739 -58.40364159 31.37178721 -58.39111328 29.47631836 C-58.37507925 26.57683063 -58.39094974 23.67874082 -58.41015625 20.77929688 C-58.40817346 18.93749692 -58.40432905 17.09569784 -58.3984375 15.25390625 C-58.40451019 14.3871376 -58.41058289 13.52036896 -58.4168396 12.62733459 C-58.34709894 6.64727734 -58.34709894 6.64727734 -56.65087891 3.48413086 C-54.13010387 1.21796827 -52.36346465 1 -49 1 C-46.72359545 2.21761174 -45.01148711 3.41954584 -43 5 C-41.31391572 6.21030802 -39.62624342 7.41840506 -37.9375 8.625 C-31.53442871 13.29941843 -25.26316733 18.14081772 -19 23 C-18.34 21.02 -17.68 19.04 -17 17 C-15.35 17 -13.7 17 -12 17 C-11.67 13.04 -11.34 9.08 -11 5 C-10.34 5 -9.68 5 -9 5 C-9 4.34 -9 3.68 -9 3 C-6.04341306 0.15291628 -4.05047276 -0.3375394 0 0 Z M-56 6 C-56.29847993 9.04862525 -56.42021845 11.88860095 -56.3984375 14.9375 C-56.40130768 15.81398193 -56.40417786 16.69046387 -56.40713501 17.59350586 C-56.40917598 19.44613288 -56.40364378 21.29878142 -56.39111328 23.15136719 C-56.37505984 25.98942179 -56.39096055 28.82605227 -56.41015625 31.6640625 C-56.40817382 33.46354481 -56.40433016 35.26302624 -56.3984375 37.0625 C-56.40451019 37.91255615 -56.41058289 38.7626123 -56.4168396 39.63842773 C-56.50276074 43.97651932 -56.50276074 43.97651932 -54.63198853 47.72045898 C-53.0075754 49.20141245 -53.0075754 49.20141245 -50.5 49.4375 C-47.91116826 49.23511182 -47.91116826 49.23511182 -46.36206055 47.32519531 C-44.67886475 44.45178489 -44.65413975 42.67390895 -44.70703125 39.359375 C-44.71669922 38.28945312 -44.72636719 37.21953125 -44.73632812 36.1171875 C-44.76146484 35.00601563 -44.78660156 33.89484375 -44.8125 32.75 C-44.82603516 31.62335938 -44.83957031 30.49671875 -44.85351562 29.3359375 C-44.88884355 26.55680736 -44.9381748 23.77864637 -45 21 C-37.14563771 24.81494642 -30.38789671 30.67846505 -23.5 36 C-21.86469694 37.25654514 -20.22899593 38.51257088 -18.59326172 39.76855469 C-17.03453591 40.97330691 -15.48780764 42.19353114 -13.94140625 43.4140625 C-12.99136719 44.14367187 -12.04132813 44.87328125 -11.0625 45.625 C-10.22847656 46.27726562 -9.39445312 46.92953125 -8.53515625 47.6015625 C-5.44059478 49.30857792 -3.48453294 49.41678697 0 49 C2.68141909 46.31858091 2.26068892 44.24544015 2.30354309 40.59925842 C2.30263168 39.72216721 2.30172028 38.84507599 2.30078125 37.94140625 C2.30720894 36.59126686 2.30720894 36.59126686 2.31376648 35.21385193 C2.3195153 33.30818524 2.32000599 31.40249661 2.31567383 29.49682617 C2.31251631 26.5775819 2.33595734 23.65935306 2.36132812 20.74023438 C2.36360127 18.89062628 2.36430454 17.04101546 2.36328125 15.19140625 C2.372491 14.31633926 2.38170074 13.44127228 2.39118958 12.53968811 C2.38184639 11.31843483 2.38184639 11.31843483 2.37231445 10.07250977 C2.37294388 9.35684341 2.3735733 8.64117706 2.3742218 7.90382385 C1.8869542 5.42488843 0.97072679 4.53606533 -1 3 C-3.5 2.41666667 -3.5 2.41666667 -6 3 C-8.21331299 5.24465369 -8.95030947 6.59891372 -9.34057617 9.74902344 C-9.32486572 10.77543945 -9.30915527 11.80185547 -9.29296875 12.859375 C-9.28330078 13.97441406 -9.27363281 15.08945313 -9.26367188 16.23828125 C-9.23853516 17.39714844 -9.21339844 18.55601562 -9.1875 19.75 C-9.17396484 20.92433594 -9.16042969 22.09867188 -9.14648438 23.30859375 C-9.1111478 26.20619298 -9.06180979 29.10286427 -9 32 C-12.11524727 30.18392298 -15.03393337 28.30083012 -17.86328125 26.06640625 C-18.57782471 25.50518066 -19.29236816 24.94395508 -20.02856445 24.36572266 C-20.78226318 23.77065918 -21.53596191 23.1755957 -22.3125 22.5625 C-23.91610612 21.31047963 -25.52028498 20.05919253 -27.125 18.80859375 C-29.52682534 16.93407999 -31.92688499 15.05759038 -34.3203125 13.17236328 C-36.4756909 11.47838231 -38.64251064 9.8002002 -40.8125 8.125 C-41.46323486 7.60752197 -42.11396973 7.09004395 -42.78442383 6.55688477 C-45.41115103 4.5458991 -47.47680712 3.09620237 -50.76171875 2.4921875 C-53.46665469 3.10587279 -54.27443936 3.86099408 -56 6 Z " fill="#E20B0E" transform="translate(101,156)"/>
<path d="M0 0 C16.5 0 33 0 50 0 C46.625 11.25 46.625 11.25 44 16 C43.14921875 15.81824219 42.2984375 15.63648438 41.421875 15.44921875 C33.84967516 13.87839006 26.27392628 12.51918652 18.625 11.375 C17.80612305 11.25213623 16.98724609 11.12927246 16.14355469 11.00268555 C10.7727069 10.21550371 5.39783986 9.57331766 0 9 C0 6.03 0 3.06 0 0 Z " fill="#94D0DE" transform="translate(184,227)"/>
<path d="M0 0 C16.17 0 32.34 0 49 0 C49 2.97 49 5.94 49 9 C48.29093506 9.06993164 47.58187012 9.13986328 46.85131836 9.21191406 C28.53160026 11.02540666 28.53160026 11.02540666 10.66015625 15.23046875 C8 16 8 16 5 16 C4.1605118 13.89828133 3.32860344 11.79353375 2.5 9.6875 C2.0359375 8.51574219 1.571875 7.34398437 1.09375 6.13671875 C0 3 0 3 0 0 Z " fill="#96D2DF" transform="translate(123,227)"/>
<path d="M0 0 C0.83739781 2.1234016 1.66980283 4.2487728 2.5 6.375 C2.9640625 7.55835938 3.428125 8.74171875 3.90625 9.9609375 C5 13 5 13 5 15 C-11.5 15 -28 15 -45 15 C-45 12.03 -45 9.06 -45 6 C-42.89625 5.85304688 -42.89625 5.85304688 -40.75 5.703125 C-30.30933417 4.90376008 -20.47172647 3.75321182 -10.41015625 0.8046875 C-6.82634348 -0.04097737 -3.66867722 -0.14056235 0 0 Z " fill="#93D1DF" transform="translate(229,122)"/>
<path d="M0 0 C4.96487657 0.54100812 9.73494643 1.33491863 14.59838867 2.45996094 C24.41933478 4.72735816 33.93636327 5.74228843 44 6 C44 8.97 44 11.94 44 15 C27.83 15 11.66 15 -5 15 C-4.25923953 10.5554372 -3.75072957 7.98542425 -1.9375 4.125 C-1.57527344 3.34382813 -1.21304688 2.56265625 -0.83984375 1.7578125 C-0.42412109 0.88769531 -0.42412109 0.88769531 0 0 Z " fill="#94D3E0" transform="translate(128,122)"/>
<path d="M0 0 C0.33 0 0.66 0 1 0 C1 6.6 1 13.2 1 20 C4.96 19.505 4.96 19.505 9 19 C9.07863281 18.37609375 9.15726563 17.7521875 9.23828125 17.109375 C10 15 10 15 11.85546875 13.953125 C16.36274012 12.59414871 20.23162934 11.63320226 25 12 C24.87625 10.6696875 24.87625 10.6696875 24.75 9.3125 C25.06623168 5.12243028 25.93256117 3.84662164 29 1 C31.95129314 0.59931785 34.26850705 0.4745097 37.1875 0.625 C38.29254883 0.64626953 38.29254883 0.64626953 39.41992188 0.66796875 C44.81691994 0.81691994 44.81691994 0.81691994 46 2 C46.08726223 3.78071246 46.10699041 5.5648314 46.09765625 7.34765625 C46.09443359 8.42724609 46.09121094 9.50683594 46.08789062 10.61914062 C46.07532227 12.32360352 46.07532227 12.32360352 46.0625 14.0625 C46.05798828 15.20267578 46.05347656 16.34285156 46.04882812 17.51757812 C46.03699747 20.34510351 46.0205141 23.1725264 46 26 C41.89151185 26 41.33482955 25.87600381 38.25 23.62890625 C37.5590625 23.13712891 36.868125 22.64535156 36.15625 22.13867188 C35.4446875 21.61853516 34.733125 21.09839844 34 20.5625 C32.58727848 19.53750911 31.17073037 18.51776701 29.75 17.50390625 C29.12609375 17.04830322 28.5021875 16.5927002 27.859375 16.12329102 C25.87926702 14.92706244 24.27983718 14.36067219 22 14 C15.46370776 16.36859699 9.75499102 21.26378321 4.28515625 25.42578125 C2 27 2 27 0 27 C0 18.09 0 9.18 0 0 Z " fill="#F82222" transform="translate(188,162)"/>
<path d="M0 0 C0.80564896 -0.00428513 1.61129791 -0.00857025 2.44136047 -0.01298523 C4.13480696 -0.01870207 5.82827798 -0.01924841 7.52172852 -0.01489258 C10.11581796 -0.01171564 12.70878427 -0.03528192 15.30273438 -0.06054688 C16.95182148 -0.06281841 18.60091165 -0.06352404 20.25 -0.0625 C21.02502365 -0.07170975 21.8000473 -0.08091949 22.59855652 -0.09040833 C27.97042486 -0.04401149 27.97042486 -0.04401149 30.43676758 1.82348633 C30.76314209 2.31099365 31.0895166 2.79850098 31.42578125 3.30078125 C31.09578125 3.96078125 30.76578125 4.62078125 30.42578125 5.30078125 C29.76578125 4.64078125 29.10578125 3.98078125 28.42578125 3.30078125 C25.62702001 3.07617066 22.93021414 2.97261715 20.12890625 2.96484375 C19.30251648 2.95818695 18.47612671 2.95153015 17.62469482 2.94467163 C15.87286609 2.93453483 14.12099866 2.92985493 12.36914062 2.93017578 C9.69986339 2.92582054 7.03226374 2.88956391 4.36328125 2.8515625 C2.66016189 2.84569078 0.95703469 2.84172377 -0.74609375 2.83984375 C-1.54005554 2.82547272 -2.33401733 2.81110168 -3.15203857 2.79629517 C-8.4073238 2.83918944 -11.42611514 3.79042295 -15.57421875 7.30078125 C-18.23478482 11.76366628 -19.13397285 15.3288248 -18.203125 20.375 C-17.04838379 23.9109467 -15.32160746 25.84566794 -12.57421875 28.30078125 C-5.7387537 30.6315885 0.76160402 30.50317347 7.92578125 30.36328125 C14.8702833 30.25233358 21.55348537 30.22489998 28.42578125 31.30078125 C28.92078125 33.77578125 28.92078125 33.77578125 29.42578125 36.30078125 C26.29047896 38.39098278 25.60746355 38.54824075 22.04614258 38.52783203 C21.16545609 38.52768097 20.28476959 38.52752991 19.37739563 38.52737427 C18.4304332 38.5170517 17.48347076 38.50672913 16.5078125 38.49609375 C15.53543137 38.49326385 14.56305023 38.49043396 13.561203 38.48751831 C10.45343759 38.47631724 7.34595966 38.45121273 4.23828125 38.42578125 C2.13216562 38.41575136 0.02604547 38.40662552 -2.08007812 38.3984375 C-7.24490255 38.37637813 -12.4095119 38.34184871 -17.57421875 38.30078125 C-17.57421875 37.64078125 -17.57421875 36.98078125 -17.57421875 36.30078125 C-16.25421875 36.30078125 -14.93421875 36.30078125 -13.57421875 36.30078125 C-13.76673643 31.58409817 -14.19178384 29.40420731 -17.63671875 26.11328125 C-20.62890491 22.92642274 -21.07577084 20.58579469 -21.19921875 16.23828125 C-20.93923704 11.05814573 -20.13700603 8.07314425 -16.57421875 4.30078125 C-15.91421875 4.30078125 -15.25421875 4.30078125 -14.57421875 4.30078125 C-14.57421875 3.64078125 -14.57421875 2.98078125 -14.57421875 2.30078125 C-9.57177319 0.30882359 -5.2937409 -0.00627446 0 0 Z " fill="#E01717" transform="translate(271.57421875,156.69921875)"/>
<path d="M0 0 C0.33 0 0.66 0 1 0 C4.18062965 14.71041215 3.33440472 41.68844049 -4.20149386 55.14554799 C-6.66465364 57.68532892 -8.15600038 57.53589506 -11.6550045 57.60482597 C-12.80937338 57.63646564 -13.96374227 57.6681053 -15.15309203 57.70070374 C-16.40350763 57.71430274 -17.65392324 57.72790175 -18.94223022 57.74191284 C-20.24325821 57.77050506 -21.5442862 57.79909729 -22.88473928 57.82855594 C-26.92305643 57.91423714 -30.96097231 57.95952787 -35 58 C-36.17424546 58.01400172 -37.34849092 58.02800344 -38.55831957 58.04242945 C-46.6804904 58.13119778 -54.80175284 58.13655733 -62.92431641 58.12939453 C-65.57440812 58.13075468 -68.22449711 58.13250295 -70.87458801 58.13470459 C-77.24379607 58.13908792 -83.61299216 58.13821968 -89.98220064 58.13529195 C-95.170064 58.13300851 -100.35792408 58.13273792 -105.54578781 58.13381577 C-106.2917367 58.133969 -107.0376856 58.13412223 -107.806239 58.13428011 C-109.32286077 58.13459992 -110.83948253 58.13492413 -112.3561043 58.1352527 C-126.48596212 58.13808559 -140.61581338 58.13485496 -154.74567012 58.12945233 C-166.80310627 58.12498445 -178.86053278 58.12576439 -190.91796875 58.13037109 C-205.00966531 58.1357527 -219.10135616 58.13781303 -233.1930536 58.13475883 C-234.70265031 58.13444037 -236.21224701 58.13412599 -237.72184372 58.13381577 C-238.46409195 58.13366149 -239.20634018 58.13350721 -239.97108079 58.13334826 C-245.13845332 58.13249395 -250.30582216 58.13392221 -255.47319412 58.13629532 C-261.79070018 58.13913361 -268.10819385 58.13827175 -274.42569853 58.13301457 C-277.63322494 58.13043116 -280.84072723 58.12984018 -284.04825401 58.13266373 C-292.03306071 58.13903634 -300.0157914 58.09865301 -308 58 C-309.23677852 57.98686437 -310.47355704 57.97372874 -311.7478137 57.96019506 C-315.49243043 57.91050809 -319.23522591 57.83087741 -322.97909546 57.74191284 C-324.1269029 57.72831384 -325.27471034 57.71471483 -326.45729983 57.70070374 C-328.05042831 57.65324425 -328.05042831 57.65324425 -329.6757412 57.60482597 C-331.07692273 57.57464042 -331.07692273 57.57464042 -332.50641096 57.54384506 C-335.73810063 56.83902224 -336.9454329 55.5424292 -339 53 C-339.8984375 50.2734375 -339.8984375 50.2734375 -340.375 47.375 C-340.63410156 45.93253906 -340.63410156 45.93253906 -340.8984375 44.4609375 C-340.93195313 43.64882812 -340.96546875 42.83671875 -341 42 C-340.34 41.34 -339.68 40.68 -339 40 C-338.49564306 41.9363704 -337.99666126 43.87414146 -337.5 45.8125 C-337.2215625 46.89144531 -336.943125 47.97039062 -336.65625 49.08203125 C-336 52 -336 52 -336 55 C-227.1 55 -118.2 55 -6 55 C-1.94419492 36.74887716 -0.44495579 18.66847645 0 0 Z " fill="#D10F12" transform="translate(349,170)"/>
<path d="M0 0 C3.65993416 5.48105204 4.59021973 9.2900534 4.49609375 15.8203125 C4.49754898 16.64199921 4.49900421 17.46368591 4.50050354 18.31027222 C4.49885258 20.0364743 4.48738192 21.76269233 4.46655273 23.48876953 C4.43750374 26.12466029 4.44597869 28.75854783 4.45898438 31.39453125 C4.45274866 33.07813473 4.44435902 34.76173189 4.43359375 36.4453125 C4.43652939 37.22875031 4.43946503 38.01218811 4.44248962 38.81936646 C4.35642494 43.82560439 3.61092537 47.38907463 0 51 C-2.5625 51.4375 -2.5625 51.4375 -6 51 C-7.26686247 50.02634151 -8.49329254 48.99901775 -9.6875 47.9375 C-12.27096886 45.79790899 -13.45786572 45.02005154 -16.8515625 44.89453125 C-18.76988737 45.12483147 -20.682571 45.41198783 -22.58203125 45.765625 C-25 46 -25 46 -28 44 C-28 43.34 -28 42.68 -28 42 C-27.01 42.33 -26.02 42.66 -25 43 C-22.66700175 43.03954234 -20.33291811 43.04401732 -18 43 C-20.3078491 41.84607545 -22.47230331 41.46562834 -25 41 C-25 40.01 -25 39.02 -25 38 C-18.21640399 39.13059934 -14.01026223 42.40904625 -8.6328125 46.5390625 C-5.50535085 48.2744789 -3.52509841 48.35150554 0 48 C1.19090955 47.02810605 1.19090955 47.02810605 1.12025452 45.24729919 C1.11803391 44.48562943 1.11581329 43.72395966 1.11352539 42.93920898 C1.11341209 41.64798378 1.11341209 41.64798378 1.11329651 40.33067322 C1.10555458 38.92755638 1.10555458 38.92755638 1.09765625 37.49609375 C1.09553383 36.06657127 1.09553383 36.06657127 1.09336853 34.60816956 C1.08775152 31.55124835 1.07519616 28.49439923 1.0625 25.4375 C1.05748719 23.37044376 1.05292391 21.30338638 1.04882812 19.23632812 C1.03777656 14.15752412 1.02050055 9.0787743 1 4 C-2.41642759 3.74984127 -2.41642759 3.74984127 -6 4 C-8.25870108 7.38805161 -8.29259413 8.77350741 -8.4140625 12.76171875 C-8.45273438 13.87998047 -8.49140625 14.99824219 -8.53125 16.15039062 C-8.5621875 17.31763672 -8.593125 18.48488281 -8.625 19.6875 C-8.66367188 20.86634766 -8.70234375 22.04519531 -8.7421875 23.25976562 C-8.83654391 26.17301977 -8.92213161 29.08626607 -9 32 C-12.875 31.125 -12.875 31.125 -14 30 C-14.07226502 28.14712498 -14.0838122 26.29166122 -14.0625 24.4375 C-14.05347656 23.42558594 -14.04445313 22.41367188 -14.03515625 21.37109375 C-14.02355469 20.58863281 -14.01195313 19.80617187 -14 19 C-14.66 19 -15.32 19 -16 19 C-16 20.98 -16 22.96 -16 25 C-16.66 24.67 -17.32 24.34 -18 24 C-17.67 21.69 -17.34 19.38 -17 17 C-15.35 17 -13.7 17 -12 17 C-11.67 13.04 -11.34 9.08 -11 5 C-10.34 5 -9.68 5 -9 5 C-9 4.34 -9 3.68 -9 3 C-6.04341306 0.15291628 -4.05047276 -0.3375394 0 0 Z " fill="#EE1A1A" transform="translate(101,156)"/>
<path d="M0 0 C0.33 0 0.66 0 1 0 C1 13.86 1 27.72 1 42 C-0.98 41.67 -2.96 41.34 -5 41 C-5.4640625 41.9590625 -5.4640625 41.9590625 -5.9375 42.9375 C-7 45 -7 45 -8 46 C-9.45573246 46.11383975 -10.91688062 46.15954488 -12.37695312 46.17700195 C-13.30882446 46.18983719 -14.2406958 46.20267242 -15.20080566 46.21589661 C-16.72562561 46.22697701 -16.72562561 46.22697701 -18.28125 46.23828125 C-19.32390015 46.246353 -20.36655029 46.25442474 -21.4407959 46.26274109 C-23.65680264 46.27660716 -25.87283096 46.28731795 -28.08886719 46.29516602 C-31.45810482 46.31228711 -34.8263379 46.35614008 -38.1953125 46.40039062 C-40.34895112 46.41052528 -42.50259809 46.41903896 -44.65625 46.42578125 C-45.65660278 46.44328934 -46.65695557 46.46079742 -47.68762207 46.47883606 C-54.75142946 46.45724386 -61.43057651 45.44030109 -66.70959473 40.35224915 C-69.25905045 37.33292227 -70.31851563 34.69909988 -70.5 30.75 C-70 27 -70 27 -68.5 25 C-68.005 24.67 -67.51 24.34 -67 24 C-67.33 26.64 -67.66 29.28 -68 32 C-67.01 32.33 -66.02 32.66 -65 33 C-62 38.22222222 -62 38.22222222 -62 41 C-58.49271709 42.58354837 -55.77561036 43.24690238 -51.93432617 43.22705078 C-50.46336739 43.22682419 -50.46336739 43.22682419 -48.96269226 43.22659302 C-47.9166835 43.21627045 -46.87067474 43.20594788 -45.79296875 43.1953125 C-44.71243729 43.1924826 -43.63190582 43.18965271 -42.51863098 43.18673706 C-39.07480699 43.17556132 -35.63124511 43.15046118 -32.1875 43.125 C-29.84961314 43.11496685 -27.51172219 43.10584158 -25.17382812 43.09765625 C-19.44912965 43.0756305 -13.72458355 43.04217868 -8 43 C-7.68289062 41.7521875 -7.36578125 40.504375 -7.0390625 39.21875 C-6.77150146 38.1659082 -6.77150146 38.1659082 -6.49853516 37.09179688 C-5.8603611 34.41409103 -5.4082013 31.72134198 -5 29 C-4.67 29 -4.34 29 -4 29 C-4 32.63 -4 36.26 -4 40 C-3.34 40 -2.68 40 -2 40 C-2.08702126 37.72844502 -2.19519522 35.45769257 -2.3125 33.1875 C-2.37050781 31.92292969 -2.42851562 30.65835938 -2.48828125 29.35546875 C-2.72811429 26.07155094 -2.72811429 26.07155094 -4.375 24.09375 C-6.50839715 22.65780961 -8.47463177 22.34126598 -11 22 C-11 21.67 -11 21.34 -11 21 C-7.6875 20.8125 -7.6875 20.8125 -4 21 C-3.01 21.99 -2.02 22.98 -1 24 C-0.67 16.08 -0.34 8.16 0 0 Z " fill="#EB2627" transform="translate(176,161)"/>
<path d="M0 0 C0.33 0 0.66 0 1 0 C1 6.27 1 12.54 1 19 C2.65 19 4.3 19 6 19 C8.61550499 21.19136904 9.83924908 22.848944 10.31640625 26.265625 C10.37247398 28.58309112 10.38640671 30.71301146 10 33 C9.34 33.66 8.68 34.32 8 35 C8.32198966 38.09926819 8.32198966 38.09926819 9 41 C15.86836079 41.10158627 22.73652717 41.17154375 29.60546875 41.21972656 C31.94115438 41.23981709 34.27678987 41.26709461 36.61230469 41.30175781 C39.97343331 41.35038691 43.33389575 41.37299492 46.6953125 41.390625 C48.25658371 41.42159271 48.25658371 41.42159271 49.84939575 41.45318604 C55.89214144 41.45504788 59.42632267 41.08095615 64 37 C65.78962819 34.38142305 65.78962819 34.38142305 67 32 C67.33 32 67.66 32 68 32 C68.3125 34.8125 68.3125 34.8125 68 38 C65.875 39.6875 65.875 39.6875 63 41 C62.17121338 41.51312744 61.34242676 42.02625488 60.48852539 42.55493164 C55.70345727 44.53707302 51.43923669 44.44894069 46.30859375 44.43359375 C45.28572769 44.4388356 44.26286163 44.44407745 43.20899963 44.44947815 C41.05316066 44.45588402 38.89728667 44.45458 36.74145508 44.44604492 C33.44484373 44.43751899 30.1499567 44.46634324 26.85351562 44.49804688 C24.75520885 44.49965865 22.65689902 44.4990818 20.55859375 44.49609375 C19.57515488 44.50732773 18.591716 44.51856171 17.57847595 44.53013611 C13.2502595 44.48606164 10.67557285 44.39370119 6.87768555 42.18041992 C4.23497375 39.11163055 4.40002567 36.87076557 4.375 32.875 C4.39761725 29.2174063 4.39761725 29.2174063 4 26 C3.01 25.34 2.02 24.68 1 24 C1 29.28 1 34.56 1 40 C0.67 40 0.34 40 0 40 C0 26.8 0 13.6 0 0 Z " fill="#E92724" transform="translate(244,163)"/>
<path d="M0 0 C0.33 0 0.66 0 1 0 C1.25 2.3125 1.25 2.3125 1 5 C-1.44784554 7.6236425 -2.97946116 7.9975161 -6.57519531 8.43237305 C-7.99248562 8.47360457 -9.41029043 8.49918893 -10.828125 8.51171875 C-11.95163361 8.53864555 -11.95163361 8.53864555 -13.09783936 8.56611633 C-15.48183624 8.62014543 -17.8656338 8.65409003 -20.25 8.6875 C-21.86981936 8.72067975 -23.48961244 8.75517003 -25.109375 8.79101562 C-29.07277266 8.87586716 -33.03611197 8.94271289 -37 9 C-37.33 9.99 -37.66 10.98 -38 12 C-36.38158203 11.95286865 -36.38158203 11.95286865 -34.73046875 11.90478516 C-30.69773647 11.79554828 -26.66513274 11.72707505 -22.63134766 11.67041016 C-20.89121453 11.64038002 -19.15123097 11.59954173 -17.41162109 11.54736328 C-1.08831049 11.07029231 -1.08831049 11.07029231 4.0625 14.84375 C7.46425467 18.07341591 9.79390037 21.35425585 10.16796875 26.15625 C10.18512232 28.10489567 10.10066136 30.05388041 10 32 C9.34 32 8.68 32 8 32 C7.95101562 31.40832031 7.90203125 30.81664062 7.8515625 30.20703125 C7.43543133 25.80895528 6.95034405 22.03071103 5 18 C4.34 18 3.68 18 3 18 C3 17.34 3 16.68 3 16 C-1.33785823 14.95238232 -5.59989012 14.80126182 -10.0390625 14.71875 C-10.80173431 14.70034058 -11.56440613 14.68193115 -12.35018921 14.66296387 C-15.59823235 14.58463666 -18.846468 14.51646954 -22.09472656 14.44775391 C-24.47210781 14.39598911 -26.84931483 14.33877649 -29.2265625 14.28125 C-29.96097565 14.26767456 -30.69538879 14.25409912 -31.45205688 14.2401123 C-34.550773 14.16441708 -37.03880316 13.98706561 -40 13 C-40.125 10.625 -40.125 10.625 -40 8 C-37.48272165 5.48272165 -35.94706101 5.76773158 -32.51405334 5.74919128 C-31.7682048 5.75332535 -31.02235626 5.75745941 -30.25390625 5.76171875 C-28.67902782 5.74630137 -27.10415786 5.72999791 -25.52929688 5.71289062 C-23.0426978 5.69641657 -20.55671767 5.68751643 -18.07006836 5.69458008 C-15.67229833 5.69719488 -13.2764236 5.66912167 -10.87890625 5.63671875 C-9.76316978 5.65202888 -9.76316978 5.65202888 -8.62489319 5.66764832 C-6.27078284 5.67787606 -6.27078284 5.67787606 -3 5 C-1.01158767 2.59171128 -1.01158767 2.59171128 0 0 Z " fill="#DC0A06" transform="translate(303,163)"/>
<path d="M0 0 C1.32 0.66 2.64 1.32 4 2 C4.390625 7.95703125 4.390625 7.95703125 4 10 C1.17731669 12.60058486 -0.68211482 13.37343004 -4.49316406 13.34057617 C-5.81408051 13.34023628 -5.81408051 13.34023628 -7.16168213 13.33988953 C-8.10348328 13.32440567 -9.04528442 13.30892181 -10.015625 13.29296875 C-10.98659119 13.28872391 -11.95755737 13.28447906 -12.95794678 13.28010559 C-16.05558131 13.26332853 -19.15256249 13.22567772 -22.25 13.1875 C-24.3515531 13.17245192 -26.4531164 13.15876373 -28.5546875 13.14648438 C-33.70337629 13.11342811 -38.85157741 13.06165208 -44 13 C-44.33 14.32 -44.66 15.64 -45 17 C-32.46 17 -19.92 17 -7 17 C-6.505 17.99 -6.505 17.99 -6 19 C-19.2 19 -32.4 19 -46 19 C-47 15 -47 15 -45.84196472 12.78411865 C-43.58245486 10.59556768 -42.6318414 10.48887217 -39.52856445 10.45410156 C-38.17750359 10.42452362 -38.17750359 10.42452362 -36.79914856 10.39434814 C-35.34589424 10.39250519 -35.34589424 10.39250519 -33.86328125 10.390625 C-32.86870407 10.37408875 -31.87412689 10.35755249 -30.84941101 10.34051514 C-27.67037871 10.2919005 -24.4918252 10.27063406 -21.3125 10.25 C-19.15817886 10.22185163 -17.00388016 10.19192581 -14.84960938 10.16015625 C-9.56649357 10.08613839 -4.28351316 10.0345749 1 10 C1.73334429 6.02245872 1.73334429 6.02245872 2 2 C1.34 2 0.68 2 0 2 C0 1.34 0 0.68 0 0 Z " fill="#DD0E0A" transform="translate(167,158)"/>
<path d="M0 0 C3.375 0.3125 3.375 0.3125 7 1 C9.49118953 4.7367843 9.2065226 6.74451819 9.125 11.1875 C9.10695312 12.45980469 9.08890625 13.73210937 9.0703125 15.04296875 C9.04710937 16.01878906 9.02390625 16.99460938 9 18 C8.34 18 7.68 18 7 18 C6.505 15.525 6.505 15.525 6 13 C5.34 13.66 4.68 14.32 4 15 C4 14.34 4 13.68 4 13 C-2.93 12.505 -2.93 12.505 -10 12 C-10 10.02 -10 8.04 -10 6 C-8.3603125 5.62875 -8.3603125 5.62875 -6.6875 5.25 C-2.94091591 3.97997149 -1.89404734 3.34243648 0 0 Z " fill="#F22020" transform="translate(165,183)"/>
<path d="M0 0 C0.99033234 0.0028299 1.98066467 0.00565979 3.00100708 0.00857544 C6.14923426 0.0197278 9.29717199 0.04482343 12.4453125 0.0703125 C14.58593338 0.08034868 16.72655874 0.08947342 18.8671875 0.09765625 C24.10166047 0.11965092 29.3359658 0.15307917 34.5703125 0.1953125 C34.5703125 0.8553125 34.5703125 1.5153125 34.5703125 2.1953125 C34.00734467 2.19895813 33.44437683 2.20260376 32.86434937 2.20635986 C26.99134416 2.24825333 21.11911548 2.31764649 15.24658203 2.40283203 C13.05655697 2.4310131 10.86643073 2.45224184 8.67626953 2.46630859 C5.52323723 2.48777727 2.37141765 2.53444925 -0.78125 2.5859375 C-1.75647614 2.58716614 -2.73170227 2.58839478 -3.73648071 2.58966064 C-9.59835724 2.71523151 -12.94855705 3.32205791 -17.4296875 7.1953125 C-21.46509581 12.64439887 -20.9110384 18.93792785 -20.9921875 25.4453125 C-21.02652285 27.61734114 -21.06906955 29.78926054 -21.12109375 31.9609375 C-21.13342041 32.91774414 -21.14574707 33.87455078 -21.15844727 34.86035156 C-21.4296875 37.1953125 -21.4296875 37.1953125 -23.4296875 39.1953125 C-24.56260853 33.78246759 -24.56260853 33.78246759 -23.93359375 31.00390625 C-23.39210448 27.98583814 -23.52670574 25.21639048 -23.69873047 22.16625977 C-24.05886443 14.61755312 -23.75248008 9.67297252 -18.546875 3.76171875 C-12.89797865 -0.41763076 -6.70646222 -0.07261526 0 0 Z " fill="#D80B0A" transform="translate(131.4296875,156.8046875)"/>
<path d="M0 0 C-0.375 2.4375 -0.375 2.4375 -1 5 C-3.71401294 6.35700647 -5.84846316 6.1123861 -8.8828125 6.09765625 C-10.04941406 6.09443359 -11.21601563 6.09121094 -12.41796875 6.08789062 C-13.64128906 6.07951172 -14.86460937 6.07113281 -16.125 6.0625 C-17.35605469 6.05798828 -18.58710938 6.05347656 -19.85546875 6.04882812 C-22.90369392 6.0370133 -25.95182314 6.02054028 -29 6 C-29.33 5.01 -29.66 4.02 -30 3 C-29.34 2.01 -28.68 1.02 -28 0 C-25.52563477 -0.44824219 -25.52563477 -0.44824219 -22.44140625 -0.546875 C-21.33345703 -0.58683594 -20.22550781 -0.62679687 -19.08398438 -0.66796875 C-17.92189453 -0.69503906 -16.75980469 -0.72210938 -15.5625 -0.75 C-13.82516602 -0.81380859 -13.82516602 -0.81380859 -12.05273438 -0.87890625 C-3.44680613 -1.14893538 -3.44680613 -1.14893538 0 0 Z " fill="#F20404" transform="translate(301,189)"/>
<path d="M0 0 C0.33 0 0.66 0 1 0 C1 6.27 1 12.54 1 19 C2.65 19 4.3 19 6 19 C8.56552726 21.14949582 9.77521629 22.84902415 10.421875 26.16015625 C10.69399327 30.68790183 10.45496025 32.44267369 7.5 36.0625 C6.675 36.701875 5.85 37.34125 5 38 C4.96261719 37.15695313 4.92523438 36.31390625 4.88671875 35.4453125 C4.78810547 33.80175781 4.78810547 33.80175781 4.6875 32.125 C4.62949219 31.03445312 4.57148438 29.94390625 4.51171875 28.8203125 C4.25841797 27.42425781 4.25841797 27.42425781 4 26 C3.01 25.34 2.02 24.68 1 24 C1 29.28 1 34.56 1 40 C0.67 40 0.34 40 0 40 C0 26.8 0 13.6 0 0 Z " fill="#F03737" transform="translate(244,163)"/>
<path d="M0 0 C0.33 0 0.66 0 1 0 C4.21499121 14.86933433 3.23060323 41.47820486 -4.16748047 55.15893555 C-6 57 -6 57 -8.8190918 57.45410156 C-9.93453369 57.4331543 -11.04997559 57.41220703 -12.19921875 57.390625 C-13.40771484 57.37773437 -14.61621094 57.36484375 -15.86132812 57.3515625 C-17.12396484 57.31804687 -18.38660156 57.28453125 -19.6875 57.25 C-20.96173828 57.23195312 -22.23597656 57.21390625 -23.54882812 57.1953125 C-26.69996841 57.14810441 -29.8496114 57.08226384 -33 57 C-33 56.67 -33 56.34 -33 56 C-24.09 55.67 -15.18 55.34 -6 55 C-1.94419492 36.74887716 -0.44495579 18.66847645 0 0 Z " fill="#E00B0B" transform="translate(349,170)"/>
<path d="M0 0 C0.33 0 0.66 0 1 0 C1 6.6 1 13.2 1 20 C4.96 19.505 4.96 19.505 9 19 C9.07992187 18.37609375 9.15984375 17.7521875 9.2421875 17.109375 C10 15 10 15 11.8203125 13.953125 C16.74245678 12.45145386 20.85300327 11.67146829 26 12 C26 12.66 26 13.32 26 14 C25.05125 14.020625 24.1025 14.04125 23.125 14.0625 C17.49953293 14.84824338 13.39739674 18.65262268 9 22 C2.25062035 27 2.25062035 27 0 27 C0 18.09 0 9.18 0 0 Z " fill="#D81C1F" transform="translate(188,162)"/>
<path d="M0 0 C0.33 0 0.66 0 1 0 C1 17.82 1 35.64 1 54 C0.34 53.67 -0.32 53.34 -1 53 C-2.8183988 45.3536222 -2.1538717 36.93970966 -2.13037109 29.12304688 C-2.1250097 27.0038335 -2.13034741 24.88483198 -2.13671875 22.765625 C-2.1452988 7.32333986 -2.1452988 7.32333986 -1 1 C-0.67 0.67 -0.34 0.34 0 0 Z " fill="#E50B0B" transform="translate(8,155)"/>
<path d="M0 0 C2.49839554 0.38192034 3.69698894 0.64977759 5.37890625 2.59375 C5.76949219 3.2228125 6.16007812 3.851875 6.5625 4.5 C8.49172223 7.62237376 8.49172223 7.62237376 12 9 C12.12375 9.639375 12.2475 10.27875 12.375 10.9375 C12.58125 11.618125 12.7875 12.29875 13 13 C14.64551962 13.71727778 16.31422289 14.38325228 18 15 C18.99 16.485 18.99 16.485 20 18 C22.05003955 19.19232613 22.05003955 19.19232613 24 20 C24 20.66 24 21.32 24 22 C24.66 22 25.32 22 26 22 C27.02317888 22.97627096 28.01890754 23.98144339 29 25 C30.37927692 26.08390596 31.77584392 27.14611436 33.1875 28.1875 C34.26064453 28.98220703 34.26064453 28.98220703 35.35546875 29.79296875 C35.89816406 30.19128906 36.44085938 30.58960938 37 31 C36.01 31.495 36.01 31.495 35 32 C32.91598726 30.56347677 30.83277356 29.12581793 28.75 27.6875 C28.16347656 27.28337891 27.57695313 26.87925781 26.97265625 26.46289062 C25.31092621 25.3146165 23.65530639 24.15751498 22 23 C21.20078125 22.44957031 20.4015625 21.89914062 19.578125 21.33203125 C19.05734375 20.89246094 18.5365625 20.45289063 18 20 C18 19.34 18 18.68 18 18 C17.19949219 17.68675781 17.19949219 17.68675781 16.3828125 17.3671875 C13.05610862 15.45842298 10.54583864 12.83482898 7.875 10.125 C7.33746094 9.59519531 6.79992187 9.06539063 6.24609375 8.51953125 C3.61453425 5.87484677 1.37160674 3.50521722 0 0 Z " fill="#135873" transform="translate(66,272)"/>
<path d="M0 0 C5.21953548 6.75046223 4.46035439 13.73070218 4.25 21.9375 C4.22990673 23.30270821 4.21166094 24.66794493 4.1953125 26.03320312 C4.14834433 29.35620134 4.08266726 32.67772992 4 36 C3.67 36 3.34 36 3 36 C2.34 25.44 1.68 14.88 1 4 C-1.31 4 -3.62 4 -6 4 C-6.99 5.485 -6.99 5.485 -8 7 C-8.66 7 -9.32 7 -10 7 C-9.63206382 4.33246269 -9.18001672 3.18001672 -7.25 1.25 C-4.62056017 -0.21079991 -2.9625559 -0.24687966 0 0 Z " fill="#EC1513" transform="translate(101,156)"/>
<path d="M0 0 C1.9375 1.625 1.9375 1.625 3 4 C3.1875 7.25 3.1875 7.25 3 10 C2.67 10 2.34 10 2 10 C1.34 7.69 0.68 5.38 0 3 C-1.99954746 2.95745644 -4.00041636 2.95919217 -6 3 C-7.29633621 4.06645115 -7.29633621 4.06645115 -7.0625 6.5625 C-7.041875 7.366875 -7.02125 8.17125 -7 9 C-5.68 9 -4.36 9 -3 9 C-2.67 8.34 -2.34 7.68 -2 7 C-3.32 7.33 -4.64 7.66 -6 8 C-6 6.68 -6 5.36 -6 4 C-4.35 4.33 -2.7 4.66 -1 5 C-0.375 7.375 -0.375 7.375 0 10 C-2 12 -2 12 -5.125 12.125 C-6.07375 12.08375 -7.0225 12.0425 -8 12 C-9.8454602 8.88578592 -10.46369062 6.61678684 -10 3 C-7.6631004 -0.98647579 -4.22387479 -0.52798435 0 0 Z " fill="#EA0A0B" transform="translate(226,165)"/>
<path d="M0 0 C4.83791857 -0.14927122 9.67447284 -0.25764206 14.51416016 -0.32958984 C16.15730157 -0.35960598 17.80028486 -0.4004338 19.44287109 -0.45263672 C35.92437917 -0.96299307 35.92437917 -0.96299307 41.6875 4.41992188 C45.96154465 9.56531194 46.33266897 13.56839985 46 20 C45.34 20 44.68 20 44 20 C43.95101562 19.40832031 43.90203125 18.81664062 43.8515625 18.20703125 C43.43543133 13.80895528 42.95034405 10.03071103 41 6 C40.34 6 39.68 6 39 6 C39 5.34 39 4.68 39 4 C33.98308021 2.38163878 29.63283736 1.71404427 24.31640625 1.5859375 C23.61603745 1.56657135 22.91566864 1.5472052 22.19407654 1.5272522 C19.98367019 1.46805109 17.77321005 1.42131275 15.5625 1.375 C14.05271319 1.33676524 12.5429469 1.29771042 11.03320312 1.2578125 C7.35565801 1.1624003 3.67795706 1.07815301 0 1 C0 0.67 0 0.34 0 0 Z " fill="#DE1111" transform="translate(267,175)"/>
<path d="M0 0 C4.34964406 1.68442098 7.26830508 4.88487419 10.5 8.125 C11.10932373 8.73520996 11.71864746 9.34541992 12.34643555 9.97412109 C16.85708404 14.59991767 20.92861373 19.46433372 24.8125 24.625 C25.32167969 25.29934082 25.83085937 25.97368164 26.35546875 26.66845703 C28.64027835 29.7919243 30.22482958 32.15721204 31 36 C29.515 35.505 29.515 35.505 28 35 C27.608125 34.195625 27.21625 33.39125 26.8125 32.5625 C24.61598021 28.24520248 21.75186835 24.86708668 18.64453125 21.171875 C17 19 17 19 17 17 C16.4225 16.773125 15.845 16.54625 15.25 16.3125 C12.40408619 14.65238361 11.00158079 12.60812043 9 10 C6.66167232 7.54475594 4.42702327 5.31161157 1.6875 3.3125 C1.130625 2.879375 0.57375 2.44625 0 2 C0 1.34 0 0.68 0 0 Z " fill="#1D607C" transform="translate(270,72)"/>
<path d="M0 0 C1.4540625 0.0309375 1.4540625 0.0309375 2.9375 0.0625 C2.9375 0.7225 2.9375 1.3825 2.9375 2.0625 C3.9275 2.0625 4.9175 2.0625 5.9375 2.0625 C6.2675 4.0425 6.5975 6.0225 6.9375 8.0625 C5.50094146 8.14381463 4.0630517 8.20183559 2.625 8.25 C1.42423828 8.30220703 1.42423828 8.30220703 0.19921875 8.35546875 C-2.0625 8.0625 -2.0625 8.0625 -3.87109375 6.68359375 C-5.0625 5.0625 -5.0625 5.0625 -4.8125 2.9375 C-3.59137599 -0.11531001 -3.51204144 0.07167432 0 0 Z " fill="#E11A1B" transform="translate(125.0625,186.9375)"/>
<path d="M0 0 C3.375 1 3.375 1 5.375 4 C5.5703125 7.35546875 5.5703125 7.35546875 5.5 11.1875 C5.48195312 12.45980469 5.46390625 13.73210937 5.4453125 15.04296875 C5.41050781 16.50669922 5.41050781 16.50669922 5.375 18 C4.715 18 4.055 18 3.375 18 C3.31441406 17.15695313 3.25382813 16.31390625 3.19140625 15.4453125 C3.10761719 14.34960938 3.02382812 13.25390625 2.9375 12.125 C2.85628906 11.03445312 2.77507812 9.94390625 2.69140625 8.8203125 C2.54498297 6.05271029 2.54498297 6.05271029 1.375 4 C-1.15233235 3.34444881 -1.15233235 3.34444881 -3.625 3 C-3.955 5.31 -4.285 7.62 -4.625 10 C-5.285 10 -5.945 10 -6.625 10 C-7.375 7.8125 -7.375 7.8125 -7.625 5 C-5.50310437 0.93303338 -4.67013393 0 0 0 Z " fill="#EB0606" transform="translate(168.625,183)"/>
<path d="M0 0 C3.63 0 7.26 0 11 0 C11 1.98 11 3.96 11 6 C9.37536158 6.05395478 7.75021459 6.09277195 6.125 6.125 C5.22007812 6.14820313 4.31515625 6.17140625 3.3828125 6.1953125 C1 6 1 6 -1 4 C-0.67 2.68 -0.34 1.36 0 0 Z " fill="#E9070A" transform="translate(133,189)"/>
<path d="M0 0 C7.57142857 1.85714286 7.57142857 1.85714286 10 5 C8.35 5.33 6.7 5.66 5 6 C5.598125 6.144375 6.19625 6.28875 6.8125 6.4375 C8.56150404 6.8872439 10.28677023 7.42892341 12 8 C11.67 8.66 11.34 9.32 11 10 C4.72413793 10.48275862 4.72413793 10.48275862 1.5625 8.375 C-0.39644605 5.397402 -0.31785906 3.49644963 0 0 Z " fill="#EC0506" transform="translate(72,190)"/>
<path d="M0 0 C2 3 2 3 4 15 C17.365 15.495 17.365 15.495 31 16 C31 16.33 31 16.66 31 17 C26.75022954 17.11611395 22.50086663 17.18722349 18.25 17.25 C17.0434375 17.28351563 15.836875 17.31703125 14.59375 17.3515625 C12.85351562 17.37089844 12.85351562 17.37089844 11.078125 17.390625 C10.00981445 17.41157227 8.94150391 17.43251953 7.84082031 17.45410156 C4.30166749 16.88837242 3.17636075 15.78988056 1 13 C0.13671875 10.2734375 0.13671875 10.2734375 -0.3125 7.375 C-0.47363281 6.41335937 -0.63476562 5.45171875 -0.80078125 4.4609375 C-1 2 -1 2 0 0 Z " fill="#E00708" transform="translate(9,210)"/>
<path d="M0 0 C0.66 0.99 1.32 1.98 2 3 C-0.01822917 2.73958333 -2.03645833 2.47916667 -4.0546875 2.21875 C-6.00498344 1.9627515 -6.00498344 1.9627515 -8 2 C-8.9731681 4.9195043 -9.1929546 7.05444951 -9.31640625 10.10546875 C-9.35830078 11.08837891 -9.40019531 12.07128906 -9.44335938 13.08398438 C-9.48267578 14.10814453 -9.52199219 15.13230469 -9.5625 16.1875 C-9.62727539 17.74114258 -9.62727539 17.74114258 -9.69335938 19.32617188 C-9.79944366 21.8839819 -9.90150146 24.44188845 -10 27 C-10.66 27.33 -11.32 27.66 -12 28 C-12.66 26.68 -13.32 25.36 -14 24 C-13.34 23.67 -12.68 23.34 -12 23 C-11.99589111 22.37955811 -11.99178223 21.75911621 -11.98754883 21.11987305 C-11.9546489 18.30811336 -11.88401352 15.49853145 -11.8125 12.6875 C-11.80669922 11.71103516 -11.80089844 10.73457031 -11.79492188 9.72851562 C-11.71246753 7.06249173 -11.58019064 4.60411814 -11 2 C-7.35359107 -1.37383683 -4.68502483 -1.45756328 0 0 Z " fill="#E8090C" transform="translate(186,158)"/>
<path d="M0 0 C11.17908451 3.41308332 21.08166983 10.56553461 30 18 C30.33 18.66 30.66 19.32 31 20 C28.18010334 18.6559958 25.63560331 17.1430825 23.0625 15.375 C16.24489893 10.77340193 9.22507152 6.44939957 2.109375 2.32421875 C1.41328125 1.88722656 0.7171875 1.45023438 0 1 C0 0.67 0 0.34 0 0 Z " fill="#1C6181" transform="translate(239,52)"/>
<path d="M0 0 C2.21046868 3.31570301 2.25630672 4.39114769 2.265625 8.25390625 C2.26949219 9.78241211 2.26949219 9.78241211 2.2734375 11.34179688 C2.26570313 12.40462891 2.25796875 13.46746094 2.25 14.5625 C2.25773437 15.62919922 2.26546875 16.69589844 2.2734375 17.79492188 C2.27085938 18.81263672 2.26828125 19.83035156 2.265625 20.87890625 C2.26336914 21.8129126 2.26111328 22.74691895 2.25878906 23.70922852 C2 26 2 26 0 28 C-1.13033175 22.59952607 -1.13033175 22.59952607 -0.53125 19.84375 C0.19746679 15.94297188 0.10562839 12.14535938 0.0625 8.1875 C0.05798828 7.39923828 0.05347656 6.61097656 0.04882812 5.79882812 C0.03711312 3.86585239 0.01917998 1.93291607 0 0 Z " fill="#EE0405" transform="translate(108,168)"/>
<path d="M0 0 C1.98 0.99 1.98 0.99 4 2 C4 5.63 4 9.26 4 13 C2.68 13.33 1.36 13.66 0 14 C0 9.38 0 4.76 0 0 Z " fill="#EF0506" transform="translate(245,187)"/>
<path d="M0 0 C0.33 0.66 0.66 1.32 1 2 C-0.32093394 4.64186789 -1.77309703 5.08602613 -4.375 6.4375 C-6.77859747 7.68627458 -8.70533523 8.69814829 -10.6015625 10.640625 C-12 12 -12 12 -15 12.3125 C-18 12 -18 12 -21 10 C-20.67 8.68 -20.34 7.36 -20 6 C-19.67 7.32 -19.34 8.64 -19 10 C-11.17161569 8.81835708 -6.12793008 4.84376826 0 0 Z " fill="#E61318" transform="translate(198,195)"/>
<path d="M0 0 C1.875 0.0625 1.875 0.0625 4 1 C6.72101864 5.48047431 7.64479409 9.73672021 8.1875 14.875 C8.3102832 15.90753906 8.3102832 15.90753906 8.43554688 16.9609375 C8.63370738 18.63947357 8.81827787 20.31960481 9 22 C8.34 22 7.68 22 7 22 C6.75765625 20.73542969 6.5153125 19.47085938 6.265625 18.16796875 C5.92793099 16.50763987 5.58934253 14.84749274 5.25 13.1875 C5.09273438 12.35412109 4.93546875 11.52074219 4.7734375 10.66210938 C3.8238898 5.77871657 3.8238898 5.77871657 0.859375 1.92578125 C0.24578125 1.62027344 -0.3678125 1.31476563 -1 1 C-0.67 0.67 -0.34 0.34 0 0 Z M-3 2 C-1 3 -1 3 -1 3 Z " fill="#E50E10" transform="translate(340,137)"/>
<path d="M0 0 C2 3 2 3 3 5 C19.335 5.495 19.335 5.495 36 6 C36 6.33 36 6.66 36 7 C31.53516791 7.24255857 27.07010405 7.45736537 22.6027832 7.64697266 C21.08452121 7.71527098 19.56657532 7.7910335 18.04907227 7.87451172 C15.86255378 7.99347667 13.67628902 8.08520137 11.48828125 8.171875 C10.17384033 8.2347168 8.85939941 8.29755859 7.50512695 8.36230469 C3.44024566 7.94214143 1.87891515 6.81838287 -1 4 C-0.67 2.68 -0.34 1.36 0 0 Z " fill="#EE211F" transform="translate(250,199)"/>
<path d="M0 0 C1.43088528 2.86177057 0.59991697 4.93375773 0 8 C0.99 8.33 1.98 8.66 3 9 C6 14.22222222 6 14.22222222 6 17 C3.29497597 16.12269491 1.31599994 15.28331029 -0.8125 13.375 C-2.62539847 9.74920305 -2.32079782 7.0420525 -2 3 C-1.34 2.01 -0.68 1.02 0 0 Z " fill="#F3241C" transform="translate(108,185)"/>
<path d="M0 0 C0.66 0 1.32 0 2 0 C1.25 5.75 1.25 5.75 -1 8 C-6.23986486 8.55743243 -6.23986486 8.55743243 -8.875 6.625 C-10 5 -10 5 -10 3 C-8.02 3.66 -6.04 4.32 -4 5 C-2.29159719 3.36587557 -1.06546953 2.13093906 0 0 Z " fill="#E90604" transform="translate(211,192)"/>
<path d="M0 0 C2.97454134 0.32157204 4.59335278 0.62139742 6.8125 2.6875 C8.34852896 5.67871429 8.43269939 7.68263802 8 11 C7.01 11.66 6.02 12.32 5 13 C4.67 10.03 4.34 7.06 4 4 C2.68 3.67 1.36 3.34 0 3 C0 2.01 0 1.02 0 0 Z " fill="#EA0809" transform="translate(245,183)"/>
<path d="M0 0 C3.03852705 1.40976705 5.5939595 3.08870228 8.25 5.125 C8.95640625 5.66382813 9.6628125 6.20265625 10.390625 6.7578125 C10.92171875 7.16773438 11.4528125 7.57765625 12 8 C11.01 9.485 11.01 9.485 10 11 C10 10.01 10 9.02 10 8 C9.34 8 8.68 8 8 8 C8.33 10.64 8.66 13.28 9 16 C7 15 7 15 6 12 C5.96045766 9.66700175 5.95598268 7.33291811 6 5 C5.38125 4.690625 4.7625 4.38125 4.125 4.0625 C2.75 3.375 1.375 2.6875 0 2 C0 1.34 0 0.68 0 0 Z " fill="#E91F22" transform="translate(64,182)"/>
<path d="M0 0 C-1.99832102 1.0103368 -3.99822356 1.9991885 -6.03515625 2.9296875 C-11.78558074 5.61100296 -14.31584092 8.21873429 -17 14 C-17.66015625 12.2578125 -17.66015625 12.2578125 -18 10 C-15.95073119 5.77388144 -13.19209214 2.59604607 -9 0.5 C-5.9347562 -0.01087397 -3.10169853 -0.14769993 0 0 Z " fill="#E01214" transform="translate(127,157)"/>
<path d="M0 0 C3.465 1.98 3.465 1.98 7 4 C6.01 5.485 6.01 5.485 5 7 C4.54625 6.525625 4.0925 6.05125 3.625 5.5625 C2.06741796 3.90972192 2.06741796 3.90972192 0 3 C0 10.26 0 17.52 0 25 C-0.33 25 -0.66 25 -1 25 C-1.02886984 21.02084841 -1.04675406 17.04172347 -1.0625 13.0625 C-1.07087891 11.92619141 -1.07925781 10.78988281 -1.08789062 9.61914062 C-1.09111328 8.53955078 -1.09433594 7.45996094 -1.09765625 6.34765625 C-1.10289307 5.34742432 -1.10812988 4.34719238 -1.11352539 3.31665039 C-1 1 -1 1 0 0 Z " fill="#EE080D" transform="translate(58,177)"/>
<path d="M0 0 C0 0.66 0 1.32 0 2 C-1.546875 2.12375 -1.546875 2.12375 -3.125 2.25 C-7.32163015 3.062251 -9.57275344 4.52919434 -13 7 C-13.66 7 -14.32 7 -15 7 C-15 5.68 -15 4.36 -15 3 C-9.63999211 0.74315457 -5.8022175 -0.36263859 0 0 Z " fill="#E51714" transform="translate(214,174)"/>
<path d="M0 0 C2 1.0625 2 1.0625 4 3 C4.25 6.6875 4.25 6.6875 4 10 C2.68 10 1.36 10 0 10 C-0.66 7.03 -1.32 4.06 -2 1 C-1.34 0.67 -0.68 0.34 0 0 Z " fill="#F20407" transform="translate(254,183)"/>
<path d="M0 0 C2.31 0 4.62 0 7 0 C6.67 1.98 6.34 3.96 6 6 C3.625 6.125 3.625 6.125 1 6 C0.34 5.34 -0.32 4.68 -1 4 C-0.625 1.875 -0.625 1.875 0 0 Z " fill="#F01C1A" transform="translate(266,189)"/>
<path d="M0 0 C1.98 0 3.96 0 6 0 C6 1.98 6 3.96 6 6 C4.02 6 2.04 6 0 6 C0 4.02 0 2.04 0 0 Z " fill="#ED0C0D" transform="translate(155,189)"/>
<path d="M0 0 C1.32 0 2.64 0 4 0 C4 0.66 4 1.32 4 2 C7.50776784 3.60355101 10.14354879 4.22036864 14 4 C14.33 5.98 14.66 7.96 15 10 C11.13518578 8.61423779 8.03192572 6.81080359 4.6875 4.4375 C3.80449219 3.81746094 2.92148438 3.19742188 2.01171875 2.55859375 C1.34785156 2.04425781 0.68398437 1.52992188 0 1 C0 0.67 0 0.34 0 0 Z " fill="#DD1414" transform="translate(218,179)"/>
<path d="M0 0 C0.12117187 0.78246094 0.24234375 1.56492188 0.3671875 2.37109375 C0.53476563 3.38300781 0.70234375 4.39492187 0.875 5.4375 C1.03742188 6.44683594 1.19984375 7.45617187 1.3671875 8.49609375 C1.57601562 9.32238281 1.78484375 10.14867187 2 11 C2.66 11.33 3.32 11.66 4 12 C1.625 11.75 1.625 11.75 -1 11 C-3.42363044 7.88390372 -3.17392151 4.82627315 -3 1 C-1 0 -1 0 0 0 Z " fill="#F22E2B" transform="translate(216,167)"/>
<path d="M0 0 C0 3 0 3 -0.9375 5.75 C-2.05557001 9.16997886 -2.57209725 12.43414372 -3 16 C-3.99 16 -4.98 16 -6 16 C-5.77065591 14.08075213 -5.51565657 12.1645594 -5.25 10.25 C-5.04117187 8.64898437 -5.04117187 8.64898437 -4.828125 7.015625 C-3.8902252 3.60025402 -2.68083082 2.24492337 0 0 Z " fill="#E60E0D" transform="translate(14,137)"/>
<path d="M0 0 C3.875 1.75 3.875 1.75 5 4 C5.08342159 5.44848582 5.10732861 6.90070869 5.09765625 8.3515625 C5.09443359 9.20234375 5.09121094 10.053125 5.08789062 10.9296875 C5.07951172 11.81914062 5.07113281 12.70859375 5.0625 13.625 C5.05798828 14.5221875 5.05347656 15.419375 5.04882812 16.34375 C5.03702591 18.56256648 5.02056155 20.78125018 5 23 C5.99 23.33 6.98 23.66 8 24 C6.68 24 5.36 24 4 24 C4 17.73 4 11.46 4 5 C3.34 5 2.68 5 2 5 C1.34 3.35 0.68 1.7 0 0 Z " fill="#EB0D0F" transform="translate(241,158)"/>
<path d="M0 0 C0.66 0.33 1.32 0.66 2 1 C1.67 1.99 1.34 2.98 1 4 C0.34 4 -0.32 4 -1 4 C-1.09152344 4.57234375 -1.18304688 5.1446875 -1.27734375 5.734375 C-2.17688458 8.55455705 -3.56952241 10.07584262 -5.5625 12.25 C-6.20316406 12.95640625 -6.84382812 13.6628125 -7.50390625 14.390625 C-7.99761719 14.92171875 -8.49132812 15.4528125 -9 16 C-9.66 15.67 -10.32 15.34 -11 15 C-10.28972656 14.08476562 -9.57945312 13.16953125 -8.84765625 12.2265625 C-7.91918172 11.02611058 -6.99080118 9.82558597 -6.0625 8.625 C-5.59392578 8.02171875 -5.12535156 7.4184375 -4.64257812 6.796875 C-2.09448545 3.54591619 -2.09448545 3.54591619 0 0 Z " fill="#166387" transform="translate(210,275)"/>
<path d="M0 0 C0.99 0 1.98 0 3 0 C3 0.99 3 1.98 3 3 C5.64 3.33 8.28 3.66 11 4 C11 4.33 11 4.66 11 5 C6.38 5 1.76 5 -3 5 C-2.67 4.01 -2.34 3.02 -2 2 C-1.34 2 -0.68 2 0 2 C0 1.34 0 0.68 0 0 Z " fill="#1A5177" transform="translate(44,132)"/>
<path d="M0 0 C3.7952131 1.49097658 5.61042731 3.75700849 8 7 C4.7 6.67 1.4 6.34 -2 6 C-0.68 5.67 0.64 5.34 2 5 C2 4.34 2 3.68 2 3 C1.01 2.67 0.02 2.34 -1 2 C-0.67 1.34 -0.34 0.68 0 0 Z " fill="#7DCBDA" transform="translate(152,305)"/>
<path d="M0 0 C0.66 0 1.32 0 2 0 C1.67 8.58 1.34 17.16 1 26 C0.67 26 0.34 26 0 26 C-0.19583915 21.85451585 -0.38027842 17.7086033 -0.5625 13.5625 C-0.61857422 12.37849609 -0.67464844 11.19449219 -0.73242188 9.97460938 C-0.78076172 8.84990234 -0.82910156 7.72519531 -0.87890625 6.56640625 C-0.9260376 5.52427979 -0.97316895 4.48215332 -1.02172852 3.40844727 C-1 1 -1 1 0 0 Z " fill="#DE2F34" transform="translate(56,176)"/>
<path d="M0 0 C0.66 0 1.32 0 2 0 C2 3.3 2 6.6 2 10 C-0.71224618 8.38731308 -3.37352812 6.75098126 -6 5 C-5.67 4.34 -5.34 3.68 -5 3 C-3.68 3.66 -2.36 4.32 -1 5 C-0.67 3.35 -0.34 1.7 0 0 Z " fill="#DF1218" transform="translate(85,175)"/>
<path d="M0 0 C0.66 0.33 1.32 0.66 2 1 C0.73461631 1.84158536 -0.53753779 2.67299748 -1.8125 3.5 C-2.87404297 4.19609375 -2.87404297 4.19609375 -3.95703125 4.90625 C-6 6 -6 6 -9 6 C-9.66 7.32 -10.32 8.64 -11 10 C-11.66 9.67 -12.32 9.34 -13 9 C-12 6 -12 6 -9.34765625 4.359375 C-8.26355469 3.82828125 -7.17945312 3.2971875 -6.0625 2.75 C-4.98097656 2.20859375 -3.89945313 1.6671875 -2.78515625 1.109375 C-1.40650391 0.56023437 -1.40650391 0.56023437 0 0 Z " fill="#7FCBDE" transform="translate(99,267)"/>
<path d="M0 0 C3.09011944 2.58265114 4.21627918 5.48956659 5.6875 9.1875 C6.12449219 10.27417969 6.56148438 11.36085937 7.01171875 12.48046875 C7.33785156 13.31191406 7.66398437 14.14335937 8 15 C7.01 15 6.02 15 5 15 C4.16013916 13.06532058 3.32831973 11.12714871 2.5 9.1875 C2.0359375 8.10855469 1.571875 7.02960938 1.09375 5.91796875 C0 3 0 3 0 0 Z " fill="#155B75" transform="translate(306,118)"/>
<path d="M0 0 C1.32 0.33 2.64 0.66 4 1 C4 3.31 4 5.62 4 8 C2.68 8 1.36 8 0 8 C0 5.36 0 2.72 0 0 Z " fill="#F10504" transform="translate(166,187)"/>
<path d="M0 0 C1.65 0 3.3 0 5 0 C5.33 1.98 5.66 3.96 6 6 C3.69 5.67 1.38 5.34 -1 5 C-0.67 3.35 -0.34 1.7 0 0 Z " fill="#EE0506" transform="translate(122,189)"/>
<path d="M0 0 C0.680625 0.309375 1.36125 0.61875 2.0625 0.9375 C5.95296182 2.34468832 9.85702515 3 14 3 C14.33 2.34 14.66 1.68 15 1 C14.125 4.875 14.125 4.875 13 6 C7.57528613 5.68089918 4.27675864 4.33795797 0 1 C0 0.67 0 0.34 0 0 Z " fill="#E7171C" transform="translate(229,201)"/>
<path d="M0 0 C4.29 0 8.58 0 13 0 C12.67 0.66 12.34 1.32 12 2 C9.36 2 6.72 2 4 2 C3.67 3.65 3.34 5.3 3 7 C2.34 6.67 1.68 6.34 1 6 C0.67 4.02 0.34 2.04 0 0 Z " fill="#2D4E6D" transform="translate(42,227)"/>
<path d="M0 0 C1.32 0 2.64 0 4 0 C4 1.98 4 3.96 4 6 C2.35 6 0.7 6 -1 6 C-1.33 5.34 -1.66 4.68 -2 4 C-1.34 4 -0.68 4 0 4 C0 2.68 0 1.36 0 0 Z " fill="#EC1016" transform="translate(140,189)"/>
<path d="M0 0 C1.65 0 3.3 0 5 0 C4.67 1.98 4.34 3.96 4 6 C3.01 6 2.02 6 1 6 C0.67 4.02 0.34 2.04 0 0 Z " fill="#EC080D" transform="translate(145,189)"/>
<path d="M0 0 C1.5625 1.4375 1.5625 1.4375 3 4 C3.0644328 7.07129699 2.80112216 10.03042686 2 13 C1.01 13.495 1.01 13.495 0 14 C0.01740234 13.07767578 0.01740234 13.07767578 0.03515625 12.13671875 C0.04417969 11.32847656 0.05320313 10.52023438 0.0625 9.6875 C0.07410156 8.88699219 0.08570313 8.08648437 0.09765625 7.26171875 C0.09657855 4.83138666 0.09657855 4.83138666 -1 2 C-0.67 1.34 -0.34 0.68 0 0 Z " fill="#F92124" transform="translate(228,164)"/>
<path d="M0 0 C0 6.6 0 13.2 0 20 C-0.33 20 -0.66 20 -1 20 C-1.06058594 18.96359375 -1.12117187 17.9271875 -1.18359375 16.859375 C-1.26803371 15.48957127 -1.35267997 14.11978025 -1.4375 12.75 C-1.47681641 12.06808594 -1.51613281 11.38617188 -1.55664062 10.68359375 C-1.76666472 7.35551959 -2.01934002 4.19744598 -3 1 C-1 0 -1 0 0 0 Z " fill="#E9090C" transform="translate(232,163)"/>
<path d="M0 0 C-0.33 0.99 -0.66 1.98 -1 3 C-2.98723268 3.70381157 -4.98777953 4.3711811 -7 5 C-7.33 5.66 -7.66 6.32 -8 7 C-8.66 7 -9.32 7 -10 7 C-9.63206382 4.33246269 -9.18001672 3.18001672 -7.25 1.25 C-4.62056017 -0.21079991 -2.9625559 -0.24687966 0 0 Z " fill="#E40B09" transform="translate(101,156)"/>
<path d="M0 0 C0.99 0.99 1.98 1.98 3 3 C-2.94 3.495 -2.94 3.495 -9 4 C-9 3.34 -9 2.68 -9 2 C-7.56853622 1.58286485 -6.12941114 1.1919503 -4.6875 0.8125 C-3.88699219 0.59207031 -3.08648437 0.37164062 -2.26171875 0.14453125 C-1.14216797 0.07298828 -1.14216797 0.07298828 0 0 Z " fill="#0E5271" transform="translate(203,321)"/>
<path d="M0 0 C1.32 0.66 2.64 1.32 4 2 C4 3.32 4 4.64 4 6 C2.35 6.33 0.7 6.66 -1 7 C-0.67 4.69 -0.34 2.38 0 0 Z " fill="#F5050B" transform="translate(214,192)"/>
<path d="M0 0 C3.26954202 0.56371414 4.82575883 1.49962266 7 4 C3.71303767 4.79953138 2.28976808 5.09658936 -1 4 C-0.67 2.68 -0.34 1.36 0 0 Z " fill="#E3110E" transform="translate(75,191)"/>
<path d="M0 0 C3.465 1.98 3.465 1.98 7 4 C5.68 4.33 4.36 4.66 3 5 C2.67 6.32 2.34 7.64 2 9 C1.34 9 0.68 9 0 9 C0 6.03 0 3.06 0 0 Z " fill="#E5131A" transform="translate(162,177)"/>
<path d="M0 0 C2.64 0.33 5.28 0.66 8 1 C7.34 2.65 6.68 4.3 6 6 C3.97945196 4.35830472 1.97956942 2.69088222 0 1 C0 0.67 0 0.34 0 0 Z " fill="#7BC8DC" transform="translate(196,52)"/>
<path d="M0 0 C0.99 0.33 1.98 0.66 3 1 C2.34 2.65 1.68 4.3 1 6 C-0.32 6 -1.64 6 -3 6 C-3 4.68 -3 3.36 -3 2 C-2.01 1.34 -1.02 0.68 0 0 Z " fill="#EE0505" transform="translate(208,190)"/>
<path d="M0 0 C0.33 0 0.66 0 1 0 C1.3125 2.8125 1.3125 2.8125 1 6 C-1.375 7.9375 -1.375 7.9375 -4 9 C-4.66 8.67 -5.32 8.34 -6 8 C-5.38125 7.236875 -4.7625 6.47375 -4.125 5.6875 C-1.94402948 3.00374191 -1.94402948 3.00374191 0 0 Z " fill="#E11B20" transform="translate(311,195)"/>
<path d="M0 0 C0.33 0 0.66 0 1 0 C1.05399736 1.45792884 1.09279177 2.91642712 1.125 4.375 C1.14820312 5.18710938 1.17140625 5.99921875 1.1953125 6.8359375 C1 9 1 9 -1 11 C-2.0257259 6.58937864 -2.03684712 4.07369424 0 0 Z " fill="#E3100C" transform="translate(109,185)"/>
<path d="M0 0 C0.66 0 1.32 0 2 0 C5 5.75 5 5.75 5 8 C3.68 7.67 2.36 7.34 1 7 C0.67 4.69 0.34 2.38 0 0 Z " fill="#DC272A" transform="translate(109,194)"/>
<path d="M0 0 C0.66 0 1.32 0 2 0 C0.5682479 5.01113235 -1.98445693 6.94469549 -6 10 C-4.34643078 6.41726669 -2.32019297 3.19026533 0 0 Z " fill="#83CCE2" transform="translate(153,78)"/>
<path d="M0 0 C1.98 0 3.96 0 6 0 C6 0.99 6 1.98 6 3 C4.02 3 2.04 3 0 3 C0 2.01 0 1.02 0 0 Z " fill="#F50108" transform="translate(134,190)"/>
<path d="M0 0 C0.33 1.32 0.66 2.64 1 4 C-0.9375 6.25 -0.9375 6.25 -3 8 C-3.66 7.67 -4.32 7.34 -5 7 C-3.35 4.69 -1.7 2.38 0 0 Z " fill="#1B6386" transform="translate(148,65)"/>
<path d="M0 0 C3.91211733 1.15585285 6.8745041 2.35534962 10 5 C6.28111761 4.49287967 3.26545761 3.88391785 0 2 C0 1.34 0 0.68 0 0 Z " fill="#E3151D" transform="translate(111,201)"/>
<path d="M0 0 C2 3 2 3 3 5 C5.01669827 6.13350534 5.01669827 6.13350534 7 7 C6.01 7.33 5.02 7.66 4 8 C1.3125 6.0625 1.3125 6.0625 -1 4 C-0.67 2.68 -0.34 1.36 0 0 Z " fill="#E61614" transform="translate(250,199)"/>
<path d="M0 0 C0.99 0.33 1.98 0.66 3 1 C3.6875 3.0625 3.6875 3.0625 4 5 C2.68 5.33 1.36 5.66 0 6 C0 4.02 0 2.04 0 0 Z " fill="#ED130F" transform="translate(220,196)"/>
<path d="M0 0 C0.556875 0.226875 1.11375 0.45375 1.6875 0.6875 C-2.74326923 3.76442308 -2.74326923 3.76442308 -5.625 3.375 C-6.4603125 3.0346875 -6.4603125 3.0346875 -7.3125 2.6875 C-2.88173077 -0.38942308 -2.88173077 -0.38942308 0 0 Z " fill="#7EC8E0" transform="translate(274.3125,102.3125)"/>
</svg>
